<?xml version="1.0" encoding="utf-8" standalone="no"?>
<!DOCTYPE svg PUBLIC "-//W3C//DTD SVG 1.1//EN"
  "http://www.w3.org/Graphics/SVG/1.1/DTD/svg11.dtd">
<svg height="345.6pt" version="1.1" viewBox="0 0 460.8 345.6" width="460.8pt" xmlns="http://www.w3.org/2000/svg" xmlns:xlink="http://www.w3.org/1999/xlink">
 <metadata>
  <rdf:RDF xmlns:cc="http://creativecommons.org/ns#" xmlns:dc="http://purl.org/dc/elements/1.1/" xmlns:rdf="http://www.w3.org/1999/02/22-rdf-syntax-ns#">
   <cc:Work>
    <dc:type rdf:resource="http://purl.org/dc/dcmitype/StillImage"/>
    <dc:date>2021-08-02T11:47:24.846719</dc:date>
    <dc:format>image/svg+xml</dc:format>
    <dc:creator>
     <cc:Agent>
      <dc:title>Matplotlib v3.4.2, https://matplotlib.org/</dc:title>
     </cc:Agent>
    </dc:creator>
   </cc:Work>
  </rdf:RDF>
 </metadata>
 <defs>
  <style type="text/css">*{stroke-linecap:butt;stroke-linejoin:round;}</style>
 </defs>
 <g id="figure_1">
  <g id="patch_1">
   <path d="M 0 345.6 
L 460.8 345.6 
L 460.8 0 
L 0 0 
z
" style="fill:#ffffff;"/>
  </g>
  <g id="axes_1">
   <g id="patch_2">
    <path d="M 50.87 303.64 
L 450 303.64 
L 450 26.88 
L 50.87 26.88 
z
" style="fill:#ffffff;"/>
   </g>
   <g id="patch_3">
    <path clip-path="url(#pf47e628eb0)" d="M 69.012273 303.64 
L 84.788162 303.64 
L 84.788162 40.059048 
L 69.012273 40.059048 
z
" style="fill:#bc1d3b;"/>
   </g>
   <g id="patch_4">
    <path clip-path="url(#pf47e628eb0)" d="M 84.788162 303.64 
L 100.564051 303.64 
L 100.564051 241.932085 
L 84.788162 241.932085 
z
" style="fill:#bc1d3b;"/>
   </g>
   <g id="patch_5">
    <path clip-path="url(#pf47e628eb0)" d="M 100.564051 303.64 
L 116.339941 303.64 
L 116.339941 189.921128 
L 100.564051 189.921128 
z
" style="fill:#bc1d3b;"/>
   </g>
   <g id="patch_6">
    <path clip-path="url(#pf47e628eb0)" d="M 116.339941 303.64 
L 132.11583 303.64 
L 132.11583 211.078127 
L 116.339941 211.078127 
z
" style="fill:#bc1d3b;"/>
   </g>
   <g id="patch_7">
    <path clip-path="url(#pf47e628eb0)" d="M 132.11583 303.64 
L 147.891719 303.64 
L 147.891719 226.064335 
L 132.11583 226.064335 
z
" style="fill:#bc1d3b;"/>
   </g>
   <g id="patch_8">
    <path clip-path="url(#pf47e628eb0)" d="M 147.891719 303.64 
L 163.667609 303.64 
L 163.667609 255.155209 
L 147.891719 255.155209 
z
" style="fill:#bc1d3b;"/>
   </g>
   <g id="patch_9">
    <path clip-path="url(#pf47e628eb0)" d="M 163.667609 303.64 
L 179.443498 303.64 
L 179.443498 270.141417 
L 163.667609 270.141417 
z
" style="fill:#bc1d3b;"/>
   </g>
   <g id="patch_10">
    <path clip-path="url(#pf47e628eb0)" d="M 179.443498 303.64 
L 195.219387 303.64 
L 195.219387 271.904501 
L 179.443498 271.904501 
z
" style="fill:#bc1d3b;"/>
   </g>
   <g id="patch_11">
    <path clip-path="url(#pf47e628eb0)" d="M 195.219387 303.64 
L 210.995277 303.64 
L 210.995277 286.890709 
L 195.219387 286.890709 
z
" style="fill:#bc1d3b;"/>
   </g>
   <g id="patch_12">
    <path clip-path="url(#pf47e628eb0)" d="M 210.995277 303.64 
L 226.771166 303.64 
L 226.771166 279.838376 
L 210.995277 279.838376 
z
" style="fill:#bc1d3b;"/>
   </g>
   <g id="patch_13">
    <path clip-path="url(#pf47e628eb0)" d="M 226.771166 303.64 
L 242.547055 303.64 
L 242.547055 287.77225 
L 226.771166 287.77225 
z
" style="fill:#bc1d3b;"/>
   </g>
   <g id="patch_14">
    <path clip-path="url(#pf47e628eb0)" d="M 242.547055 303.64 
L 258.322945 303.64 
L 258.322945 288.653792 
L 242.547055 288.653792 
z
" style="fill:#bc1d3b;"/>
   </g>
   <g id="patch_15">
    <path clip-path="url(#pf47e628eb0)" d="M 258.322945 303.64 
L 274.098834 303.64 
L 274.098834 298.35075 
L 258.322945 298.35075 
z
" style="fill:#bc1d3b;"/>
   </g>
   <g id="patch_16">
    <path clip-path="url(#pf47e628eb0)" d="M 274.098834 303.64 
L 289.874723 303.64 
L 289.874723 300.113833 
L 274.098834 300.113833 
z
" style="fill:#bc1d3b;"/>
   </g>
   <g id="patch_17">
    <path clip-path="url(#pf47e628eb0)" d="M 289.874723 303.64 
L 305.650613 303.64 
L 305.650613 300.995375 
L 289.874723 300.995375 
z
" style="fill:#bc1d3b;"/>
   </g>
   <g id="patch_18">
    <path clip-path="url(#pf47e628eb0)" d="M 305.650613 303.64 
L 321.426502 303.64 
L 321.426502 303.64 
L 305.650613 303.64 
z
" style="fill:#bc1d3b;"/>
   </g>
   <g id="patch_19">
    <path clip-path="url(#pf47e628eb0)" d="M 321.426502 303.64 
L 337.202391 303.64 
L 337.202391 301.876917 
L 321.426502 301.876917 
z
" style="fill:#bc1d3b;"/>
   </g>
   <g id="patch_20">
    <path clip-path="url(#pf47e628eb0)" d="M 337.202391 303.64 
L 352.978281 303.64 
L 352.978281 302.758458 
L 337.202391 302.758458 
z
" style="fill:#bc1d3b;"/>
   </g>
   <g id="patch_21">
    <path clip-path="url(#pf47e628eb0)" d="M 352.978281 303.64 
L 368.75417 303.64 
L 368.75417 303.64 
L 352.978281 303.64 
z
" style="fill:#bc1d3b;"/>
   </g>
   <g id="patch_22">
    <path clip-path="url(#pf47e628eb0)" d="M 368.75417 303.64 
L 384.530059 303.64 
L 384.530059 303.64 
L 368.75417 303.64 
z
" style="fill:#bc1d3b;"/>
   </g>
   <g id="patch_23">
    <path clip-path="url(#pf47e628eb0)" d="M 384.530059 303.64 
L 400.305949 303.64 
L 400.305949 300.113833 
L 384.530059 300.113833 
z
" style="fill:#bc1d3b;"/>
   </g>
   <g id="patch_24">
    <path clip-path="url(#pf47e628eb0)" d="M 400.305949 303.64 
L 416.081838 303.64 
L 416.081838 302.758458 
L 400.305949 302.758458 
z
" style="fill:#bc1d3b;"/>
   </g>
   <g id="patch_25">
    <path clip-path="url(#pf47e628eb0)" d="M 416.081838 303.64 
L 431.857727 303.64 
L 431.857727 299.232292 
L 416.081838 299.232292 
z
" style="fill:#bc1d3b;"/>
   </g>
   <g id="matplotlib.axis_1">
    <g id="xtick_1">
     <g id="line2d_1">
      <defs>
       <path d="M 0 0 
L 0 3.5 
" id="m66aa69ef40" style="stroke:#000000;stroke-width:0.8;"/>
      </defs>
      <g>
       <use style="stroke:#000000;stroke-width:0.8;" x="69.012273" xlink:href="#m66aa69ef40" y="303.64"/>
      </g>
     </g>
     <g id="text_1">
      <!-- 0% -->
      <g transform="translate(61.080241 318.238437)scale(0.1 -0.1)">
       <defs>
        <path d="M 2034 4250 
Q 1547 4250 1301 3770 
Q 1056 3291 1056 2328 
Q 1056 1369 1301 889 
Q 1547 409 2034 409 
Q 2525 409 2770 889 
Q 3016 1369 3016 2328 
Q 3016 3291 2770 3770 
Q 2525 4250 2034 4250 
z
M 2034 4750 
Q 2819 4750 3233 4129 
Q 3647 3509 3647 2328 
Q 3647 1150 3233 529 
Q 2819 -91 2034 -91 
Q 1250 -91 836 529 
Q 422 1150 422 2328 
Q 422 3509 836 4129 
Q 1250 4750 2034 4750 
z
" id="DejaVuSans-30" transform="scale(0.015625)"/>
        <path d="M 4653 2053 
Q 4381 2053 4226 1822 
Q 4072 1591 4072 1178 
Q 4072 772 4226 539 
Q 4381 306 4653 306 
Q 4919 306 5073 539 
Q 5228 772 5228 1178 
Q 5228 1588 5073 1820 
Q 4919 2053 4653 2053 
z
M 4653 2450 
Q 5147 2450 5437 2106 
Q 5728 1763 5728 1178 
Q 5728 594 5436 251 
Q 5144 -91 4653 -91 
Q 4153 -91 3862 251 
Q 3572 594 3572 1178 
Q 3572 1766 3864 2108 
Q 4156 2450 4653 2450 
z
M 1428 4353 
Q 1159 4353 1004 4120 
Q 850 3888 850 3481 
Q 850 3069 1003 2837 
Q 1156 2606 1428 2606 
Q 1700 2606 1854 2837 
Q 2009 3069 2009 3481 
Q 2009 3884 1853 4118 
Q 1697 4353 1428 4353 
z
M 4250 4750 
L 4750 4750 
L 1831 -91 
L 1331 -91 
L 4250 4750 
z
M 1428 4750 
Q 1922 4750 2215 4408 
Q 2509 4066 2509 3481 
Q 2509 2891 2217 2550 
Q 1925 2209 1428 2209 
Q 931 2209 642 2551 
Q 353 2894 353 3481 
Q 353 4063 643 4406 
Q 934 4750 1428 4750 
z
" id="DejaVuSans-25" transform="scale(0.015625)"/>
       </defs>
       <use xlink:href="#DejaVuSans-30"/>
       <use x="63.623047" xlink:href="#DejaVuSans-25"/>
      </g>
     </g>
    </g>
    <g id="xtick_2">
     <g id="line2d_2">
      <g>
       <use style="stroke:#000000;stroke-width:0.8;" x="141.581364" xlink:href="#m66aa69ef40" y="303.64"/>
      </g>
     </g>
     <g id="text_2">
      <!-- 20% -->
      <g transform="translate(130.468082 318.238437)scale(0.1 -0.1)">
       <defs>
        <path d="M 1228 531 
L 3431 531 
L 3431 0 
L 469 0 
L 469 531 
Q 828 903 1448 1529 
Q 2069 2156 2228 2338 
Q 2531 2678 2651 2914 
Q 2772 3150 2772 3378 
Q 2772 3750 2511 3984 
Q 2250 4219 1831 4219 
Q 1534 4219 1204 4116 
Q 875 4013 500 3803 
L 500 4441 
Q 881 4594 1212 4672 
Q 1544 4750 1819 4750 
Q 2544 4750 2975 4387 
Q 3406 4025 3406 3419 
Q 3406 3131 3298 2873 
Q 3191 2616 2906 2266 
Q 2828 2175 2409 1742 
Q 1991 1309 1228 531 
z
" id="DejaVuSans-32" transform="scale(0.015625)"/>
       </defs>
       <use xlink:href="#DejaVuSans-32"/>
       <use x="63.623047" xlink:href="#DejaVuSans-30"/>
       <use x="127.246094" xlink:href="#DejaVuSans-25"/>
      </g>
     </g>
    </g>
    <g id="xtick_3">
     <g id="line2d_3">
      <g>
       <use style="stroke:#000000;stroke-width:0.8;" x="214.150455" xlink:href="#m66aa69ef40" y="303.64"/>
      </g>
     </g>
     <g id="text_3">
      <!-- 40% -->
      <g transform="translate(203.037173 318.238437)scale(0.1 -0.1)">
       <defs>
        <path d="M 2419 4116 
L 825 1625 
L 2419 1625 
L 2419 4116 
z
M 2253 4666 
L 3047 4666 
L 3047 1625 
L 3713 1625 
L 3713 1100 
L 3047 1100 
L 3047 0 
L 2419 0 
L 2419 1100 
L 313 1100 
L 313 1709 
L 2253 4666 
z
" id="DejaVuSans-34" transform="scale(0.015625)"/>
       </defs>
       <use xlink:href="#DejaVuSans-34"/>
       <use x="63.623047" xlink:href="#DejaVuSans-30"/>
       <use x="127.246094" xlink:href="#DejaVuSans-25"/>
      </g>
     </g>
    </g>
    <g id="xtick_4">
     <g id="line2d_4">
      <g>
       <use style="stroke:#000000;stroke-width:0.8;" x="286.719545" xlink:href="#m66aa69ef40" y="303.64"/>
      </g>
     </g>
     <g id="text_4">
      <!-- 60% -->
      <g transform="translate(275.606264 318.238437)scale(0.1 -0.1)">
       <defs>
        <path d="M 2113 2584 
Q 1688 2584 1439 2293 
Q 1191 2003 1191 1497 
Q 1191 994 1439 701 
Q 1688 409 2113 409 
Q 2538 409 2786 701 
Q 3034 994 3034 1497 
Q 3034 2003 2786 2293 
Q 2538 2584 2113 2584 
z
M 3366 4563 
L 3366 3988 
Q 3128 4100 2886 4159 
Q 2644 4219 2406 4219 
Q 1781 4219 1451 3797 
Q 1122 3375 1075 2522 
Q 1259 2794 1537 2939 
Q 1816 3084 2150 3084 
Q 2853 3084 3261 2657 
Q 3669 2231 3669 1497 
Q 3669 778 3244 343 
Q 2819 -91 2113 -91 
Q 1303 -91 875 529 
Q 447 1150 447 2328 
Q 447 3434 972 4092 
Q 1497 4750 2381 4750 
Q 2619 4750 2861 4703 
Q 3103 4656 3366 4563 
z
" id="DejaVuSans-36" transform="scale(0.015625)"/>
       </defs>
       <use xlink:href="#DejaVuSans-36"/>
       <use x="63.623047" xlink:href="#DejaVuSans-30"/>
       <use x="127.246094" xlink:href="#DejaVuSans-25"/>
      </g>
     </g>
    </g>
    <g id="xtick_5">
     <g id="line2d_5">
      <g>
       <use style="stroke:#000000;stroke-width:0.8;" x="359.288636" xlink:href="#m66aa69ef40" y="303.64"/>
      </g>
     </g>
     <g id="text_5">
      <!-- 80% -->
      <g transform="translate(348.175355 318.238437)scale(0.1 -0.1)">
       <defs>
        <path d="M 2034 2216 
Q 1584 2216 1326 1975 
Q 1069 1734 1069 1313 
Q 1069 891 1326 650 
Q 1584 409 2034 409 
Q 2484 409 2743 651 
Q 3003 894 3003 1313 
Q 3003 1734 2745 1975 
Q 2488 2216 2034 2216 
z
M 1403 2484 
Q 997 2584 770 2862 
Q 544 3141 544 3541 
Q 544 4100 942 4425 
Q 1341 4750 2034 4750 
Q 2731 4750 3128 4425 
Q 3525 4100 3525 3541 
Q 3525 3141 3298 2862 
Q 3072 2584 2669 2484 
Q 3125 2378 3379 2068 
Q 3634 1759 3634 1313 
Q 3634 634 3220 271 
Q 2806 -91 2034 -91 
Q 1263 -91 848 271 
Q 434 634 434 1313 
Q 434 1759 690 2068 
Q 947 2378 1403 2484 
z
M 1172 3481 
Q 1172 3119 1398 2916 
Q 1625 2713 2034 2713 
Q 2441 2713 2670 2916 
Q 2900 3119 2900 3481 
Q 2900 3844 2670 4047 
Q 2441 4250 2034 4250 
Q 1625 4250 1398 4047 
Q 1172 3844 1172 3481 
z
" id="DejaVuSans-38" transform="scale(0.015625)"/>
       </defs>
       <use xlink:href="#DejaVuSans-38"/>
       <use x="63.623047" xlink:href="#DejaVuSans-30"/>
       <use x="127.246094" xlink:href="#DejaVuSans-25"/>
      </g>
     </g>
    </g>
    <g id="xtick_6">
     <g id="line2d_6">
      <g>
       <use style="stroke:#000000;stroke-width:0.8;" x="431.857727" xlink:href="#m66aa69ef40" y="303.64"/>
      </g>
     </g>
     <g id="text_6">
      <!-- 100% -->
      <g transform="translate(417.563196 318.238437)scale(0.1 -0.1)">
       <defs>
        <path d="M 794 531 
L 1825 531 
L 1825 4091 
L 703 3866 
L 703 4441 
L 1819 4666 
L 2450 4666 
L 2450 531 
L 3481 531 
L 3481 0 
L 794 0 
L 794 531 
z
" id="DejaVuSans-31" transform="scale(0.015625)"/>
       </defs>
       <use xlink:href="#DejaVuSans-31"/>
       <use x="63.623047" xlink:href="#DejaVuSans-30"/>
       <use x="127.246094" xlink:href="#DejaVuSans-30"/>
       <use x="190.869141" xlink:href="#DejaVuSans-25"/>
      </g>
     </g>
    </g>
    <g id="text_7">
     <!-- ratio of blocked requests -->
     <g transform="translate(188.374844 331.916562)scale(0.1 -0.1)">
      <defs>
       <path d="M 2631 2963 
Q 2534 3019 2420 3045 
Q 2306 3072 2169 3072 
Q 1681 3072 1420 2755 
Q 1159 2438 1159 1844 
L 1159 0 
L 581 0 
L 581 3500 
L 1159 3500 
L 1159 2956 
Q 1341 3275 1631 3429 
Q 1922 3584 2338 3584 
Q 2397 3584 2469 3576 
Q 2541 3569 2628 3553 
L 2631 2963 
z
" id="DejaVuSans-72" transform="scale(0.015625)"/>
       <path d="M 2194 1759 
Q 1497 1759 1228 1600 
Q 959 1441 959 1056 
Q 959 750 1161 570 
Q 1363 391 1709 391 
Q 2188 391 2477 730 
Q 2766 1069 2766 1631 
L 2766 1759 
L 2194 1759 
z
M 3341 1997 
L 3341 0 
L 2766 0 
L 2766 531 
Q 2569 213 2275 61 
Q 1981 -91 1556 -91 
Q 1019 -91 701 211 
Q 384 513 384 1019 
Q 384 1609 779 1909 
Q 1175 2209 1959 2209 
L 2766 2209 
L 2766 2266 
Q 2766 2663 2505 2880 
Q 2244 3097 1772 3097 
Q 1472 3097 1187 3025 
Q 903 2953 641 2809 
L 641 3341 
Q 956 3463 1253 3523 
Q 1550 3584 1831 3584 
Q 2591 3584 2966 3190 
Q 3341 2797 3341 1997 
z
" id="DejaVuSans-61" transform="scale(0.015625)"/>
       <path d="M 1172 4494 
L 1172 3500 
L 2356 3500 
L 2356 3053 
L 1172 3053 
L 1172 1153 
Q 1172 725 1289 603 
Q 1406 481 1766 481 
L 2356 481 
L 2356 0 
L 1766 0 
Q 1100 0 847 248 
Q 594 497 594 1153 
L 594 3053 
L 172 3053 
L 172 3500 
L 594 3500 
L 594 4494 
L 1172 4494 
z
" id="DejaVuSans-74" transform="scale(0.015625)"/>
       <path d="M 603 3500 
L 1178 3500 
L 1178 0 
L 603 0 
L 603 3500 
z
M 603 4863 
L 1178 4863 
L 1178 4134 
L 603 4134 
L 603 4863 
z
" id="DejaVuSans-69" transform="scale(0.015625)"/>
       <path d="M 1959 3097 
Q 1497 3097 1228 2736 
Q 959 2375 959 1747 
Q 959 1119 1226 758 
Q 1494 397 1959 397 
Q 2419 397 2687 759 
Q 2956 1122 2956 1747 
Q 2956 2369 2687 2733 
Q 2419 3097 1959 3097 
z
M 1959 3584 
Q 2709 3584 3137 3096 
Q 3566 2609 3566 1747 
Q 3566 888 3137 398 
Q 2709 -91 1959 -91 
Q 1206 -91 779 398 
Q 353 888 353 1747 
Q 353 2609 779 3096 
Q 1206 3584 1959 3584 
z
" id="DejaVuSans-6f" transform="scale(0.015625)"/>
       <path id="DejaVuSans-20" transform="scale(0.015625)"/>
       <path d="M 2375 4863 
L 2375 4384 
L 1825 4384 
Q 1516 4384 1395 4259 
Q 1275 4134 1275 3809 
L 1275 3500 
L 2222 3500 
L 2222 3053 
L 1275 3053 
L 1275 0 
L 697 0 
L 697 3053 
L 147 3053 
L 147 3500 
L 697 3500 
L 697 3744 
Q 697 4328 969 4595 
Q 1241 4863 1831 4863 
L 2375 4863 
z
" id="DejaVuSans-66" transform="scale(0.015625)"/>
       <path d="M 3116 1747 
Q 3116 2381 2855 2742 
Q 2594 3103 2138 3103 
Q 1681 3103 1420 2742 
Q 1159 2381 1159 1747 
Q 1159 1113 1420 752 
Q 1681 391 2138 391 
Q 2594 391 2855 752 
Q 3116 1113 3116 1747 
z
M 1159 2969 
Q 1341 3281 1617 3432 
Q 1894 3584 2278 3584 
Q 2916 3584 3314 3078 
Q 3713 2572 3713 1747 
Q 3713 922 3314 415 
Q 2916 -91 2278 -91 
Q 1894 -91 1617 61 
Q 1341 213 1159 525 
L 1159 0 
L 581 0 
L 581 4863 
L 1159 4863 
L 1159 2969 
z
" id="DejaVuSans-62" transform="scale(0.015625)"/>
       <path d="M 603 4863 
L 1178 4863 
L 1178 0 
L 603 0 
L 603 4863 
z
" id="DejaVuSans-6c" transform="scale(0.015625)"/>
       <path d="M 3122 3366 
L 3122 2828 
Q 2878 2963 2633 3030 
Q 2388 3097 2138 3097 
Q 1578 3097 1268 2742 
Q 959 2388 959 1747 
Q 959 1106 1268 751 
Q 1578 397 2138 397 
Q 2388 397 2633 464 
Q 2878 531 3122 666 
L 3122 134 
Q 2881 22 2623 -34 
Q 2366 -91 2075 -91 
Q 1284 -91 818 406 
Q 353 903 353 1747 
Q 353 2603 823 3093 
Q 1294 3584 2113 3584 
Q 2378 3584 2631 3529 
Q 2884 3475 3122 3366 
z
" id="DejaVuSans-63" transform="scale(0.015625)"/>
       <path d="M 581 4863 
L 1159 4863 
L 1159 1991 
L 2875 3500 
L 3609 3500 
L 1753 1863 
L 3688 0 
L 2938 0 
L 1159 1709 
L 1159 0 
L 581 0 
L 581 4863 
z
" id="DejaVuSans-6b" transform="scale(0.015625)"/>
       <path d="M 3597 1894 
L 3597 1613 
L 953 1613 
Q 991 1019 1311 708 
Q 1631 397 2203 397 
Q 2534 397 2845 478 
Q 3156 559 3463 722 
L 3463 178 
Q 3153 47 2828 -22 
Q 2503 -91 2169 -91 
Q 1331 -91 842 396 
Q 353 884 353 1716 
Q 353 2575 817 3079 
Q 1281 3584 2069 3584 
Q 2775 3584 3186 3129 
Q 3597 2675 3597 1894 
z
M 3022 2063 
Q 3016 2534 2758 2815 
Q 2500 3097 2075 3097 
Q 1594 3097 1305 2825 
Q 1016 2553 972 2059 
L 3022 2063 
z
" id="DejaVuSans-65" transform="scale(0.015625)"/>
       <path d="M 2906 2969 
L 2906 4863 
L 3481 4863 
L 3481 0 
L 2906 0 
L 2906 525 
Q 2725 213 2448 61 
Q 2172 -91 1784 -91 
Q 1150 -91 751 415 
Q 353 922 353 1747 
Q 353 2572 751 3078 
Q 1150 3584 1784 3584 
Q 2172 3584 2448 3432 
Q 2725 3281 2906 2969 
z
M 947 1747 
Q 947 1113 1208 752 
Q 1469 391 1925 391 
Q 2381 391 2643 752 
Q 2906 1113 2906 1747 
Q 2906 2381 2643 2742 
Q 2381 3103 1925 3103 
Q 1469 3103 1208 2742 
Q 947 2381 947 1747 
z
" id="DejaVuSans-64" transform="scale(0.015625)"/>
       <path d="M 947 1747 
Q 947 1113 1208 752 
Q 1469 391 1925 391 
Q 2381 391 2643 752 
Q 2906 1113 2906 1747 
Q 2906 2381 2643 2742 
Q 2381 3103 1925 3103 
Q 1469 3103 1208 2742 
Q 947 2381 947 1747 
z
M 2906 525 
Q 2725 213 2448 61 
Q 2172 -91 1784 -91 
Q 1150 -91 751 415 
Q 353 922 353 1747 
Q 353 2572 751 3078 
Q 1150 3584 1784 3584 
Q 2172 3584 2448 3432 
Q 2725 3281 2906 2969 
L 2906 3500 
L 3481 3500 
L 3481 -1331 
L 2906 -1331 
L 2906 525 
z
" id="DejaVuSans-71" transform="scale(0.015625)"/>
       <path d="M 544 1381 
L 544 3500 
L 1119 3500 
L 1119 1403 
Q 1119 906 1312 657 
Q 1506 409 1894 409 
Q 2359 409 2629 706 
Q 2900 1003 2900 1516 
L 2900 3500 
L 3475 3500 
L 3475 0 
L 2900 0 
L 2900 538 
Q 2691 219 2414 64 
Q 2138 -91 1772 -91 
Q 1169 -91 856 284 
Q 544 659 544 1381 
z
M 1991 3584 
L 1991 3584 
z
" id="DejaVuSans-75" transform="scale(0.015625)"/>
       <path d="M 2834 3397 
L 2834 2853 
Q 2591 2978 2328 3040 
Q 2066 3103 1784 3103 
Q 1356 3103 1142 2972 
Q 928 2841 928 2578 
Q 928 2378 1081 2264 
Q 1234 2150 1697 2047 
L 1894 2003 
Q 2506 1872 2764 1633 
Q 3022 1394 3022 966 
Q 3022 478 2636 193 
Q 2250 -91 1575 -91 
Q 1294 -91 989 -36 
Q 684 19 347 128 
L 347 722 
Q 666 556 975 473 
Q 1284 391 1588 391 
Q 1994 391 2212 530 
Q 2431 669 2431 922 
Q 2431 1156 2273 1281 
Q 2116 1406 1581 1522 
L 1381 1569 
Q 847 1681 609 1914 
Q 372 2147 372 2553 
Q 372 3047 722 3315 
Q 1072 3584 1716 3584 
Q 2034 3584 2315 3537 
Q 2597 3491 2834 3397 
z
" id="DejaVuSans-73" transform="scale(0.015625)"/>
      </defs>
      <use xlink:href="#DejaVuSans-72"/>
      <use x="41.113281" xlink:href="#DejaVuSans-61"/>
      <use x="102.392578" xlink:href="#DejaVuSans-74"/>
      <use x="141.601562" xlink:href="#DejaVuSans-69"/>
      <use x="169.384766" xlink:href="#DejaVuSans-6f"/>
      <use x="230.566406" xlink:href="#DejaVuSans-20"/>
      <use x="262.353516" xlink:href="#DejaVuSans-6f"/>
      <use x="323.535156" xlink:href="#DejaVuSans-66"/>
      <use x="358.740234" xlink:href="#DejaVuSans-20"/>
      <use x="390.527344" xlink:href="#DejaVuSans-62"/>
      <use x="454.003906" xlink:href="#DejaVuSans-6c"/>
      <use x="481.787109" xlink:href="#DejaVuSans-6f"/>
      <use x="542.96875" xlink:href="#DejaVuSans-63"/>
      <use x="597.949219" xlink:href="#DejaVuSans-6b"/>
      <use x="652.234375" xlink:href="#DejaVuSans-65"/>
      <use x="713.757812" xlink:href="#DejaVuSans-64"/>
      <use x="777.234375" xlink:href="#DejaVuSans-20"/>
      <use x="809.021484" xlink:href="#DejaVuSans-72"/>
      <use x="847.884766" xlink:href="#DejaVuSans-65"/>
      <use x="909.408203" xlink:href="#DejaVuSans-71"/>
      <use x="972.884766" xlink:href="#DejaVuSans-75"/>
      <use x="1036.263672" xlink:href="#DejaVuSans-65"/>
      <use x="1097.787109" xlink:href="#DejaVuSans-73"/>
      <use x="1149.886719" xlink:href="#DejaVuSans-74"/>
      <use x="1189.095703" xlink:href="#DejaVuSans-73"/>
     </g>
    </g>
   </g>
   <g id="matplotlib.axis_2">
    <g id="ytick_1">
     <g id="line2d_7">
      <defs>
       <path d="M 0 0 
L -3.5 0 
" id="me8ebff3c61" style="stroke:#000000;stroke-width:0.8;"/>
      </defs>
      <g>
       <use style="stroke:#000000;stroke-width:0.8;" x="50.87" xlink:href="#me8ebff3c61" y="303.64"/>
      </g>
     </g>
     <g id="text_8">
      <!-- 0 -->
      <g transform="translate(37.5075 307.439219)scale(0.1 -0.1)">
       <use xlink:href="#DejaVuSans-30"/>
      </g>
     </g>
    </g>
    <g id="ytick_2">
     <g id="line2d_8">
      <g>
       <use style="stroke:#000000;stroke-width:0.8;" x="50.87" xlink:href="#me8ebff3c61" y="259.562918"/>
      </g>
     </g>
     <g id="text_9">
      <!-- 50 -->
      <g transform="translate(31.145 263.362136)scale(0.1 -0.1)">
       <defs>
        <path d="M 691 4666 
L 3169 4666 
L 3169 4134 
L 1269 4134 
L 1269 2991 
Q 1406 3038 1543 3061 
Q 1681 3084 1819 3084 
Q 2600 3084 3056 2656 
Q 3513 2228 3513 1497 
Q 3513 744 3044 326 
Q 2575 -91 1722 -91 
Q 1428 -91 1123 -41 
Q 819 9 494 109 
L 494 744 
Q 775 591 1075 516 
Q 1375 441 1709 441 
Q 2250 441 2565 725 
Q 2881 1009 2881 1497 
Q 2881 1984 2565 2268 
Q 2250 2553 1709 2553 
Q 1456 2553 1204 2497 
Q 953 2441 691 2322 
L 691 4666 
z
" id="DejaVuSans-35" transform="scale(0.015625)"/>
       </defs>
       <use xlink:href="#DejaVuSans-35"/>
       <use x="63.623047" xlink:href="#DejaVuSans-30"/>
      </g>
     </g>
    </g>
    <g id="ytick_3">
     <g id="line2d_9">
      <g>
       <use style="stroke:#000000;stroke-width:0.8;" x="50.87" xlink:href="#me8ebff3c61" y="215.485835"/>
      </g>
     </g>
     <g id="text_10">
      <!-- 100 -->
      <g transform="translate(24.7825 219.285054)scale(0.1 -0.1)">
       <use xlink:href="#DejaVuSans-31"/>
       <use x="63.623047" xlink:href="#DejaVuSans-30"/>
       <use x="127.246094" xlink:href="#DejaVuSans-30"/>
      </g>
     </g>
    </g>
    <g id="ytick_4">
     <g id="line2d_10">
      <g>
       <use style="stroke:#000000;stroke-width:0.8;" x="50.87" xlink:href="#me8ebff3c61" y="171.408753"/>
      </g>
     </g>
     <g id="text_11">
      <!-- 150 -->
      <g transform="translate(24.7825 175.207972)scale(0.1 -0.1)">
       <use xlink:href="#DejaVuSans-31"/>
       <use x="63.623047" xlink:href="#DejaVuSans-35"/>
       <use x="127.246094" xlink:href="#DejaVuSans-30"/>
      </g>
     </g>
    </g>
    <g id="ytick_5">
     <g id="line2d_11">
      <g>
       <use style="stroke:#000000;stroke-width:0.8;" x="50.87" xlink:href="#me8ebff3c61" y="127.331671"/>
      </g>
     </g>
     <g id="text_12">
      <!-- 200 -->
      <g transform="translate(24.7825 131.130889)scale(0.1 -0.1)">
       <use xlink:href="#DejaVuSans-32"/>
       <use x="63.623047" xlink:href="#DejaVuSans-30"/>
       <use x="127.246094" xlink:href="#DejaVuSans-30"/>
      </g>
     </g>
    </g>
    <g id="ytick_6">
     <g id="line2d_12">
      <g>
       <use style="stroke:#000000;stroke-width:0.8;" x="50.87" xlink:href="#me8ebff3c61" y="83.254588"/>
      </g>
     </g>
     <g id="text_13">
      <!-- 250 -->
      <g transform="translate(24.7825 87.053807)scale(0.1 -0.1)">
       <use xlink:href="#DejaVuSans-32"/>
       <use x="63.623047" xlink:href="#DejaVuSans-35"/>
       <use x="127.246094" xlink:href="#DejaVuSans-30"/>
      </g>
     </g>
    </g>
    <g id="ytick_7">
     <g id="line2d_13">
      <g>
       <use style="stroke:#000000;stroke-width:0.8;" x="50.87" xlink:href="#me8ebff3c61" y="39.177506"/>
      </g>
     </g>
     <g id="text_14">
      <!-- 300 -->
      <g transform="translate(24.7825 42.976725)scale(0.1 -0.1)">
       <defs>
        <path d="M 2597 2516 
Q 3050 2419 3304 2112 
Q 3559 1806 3559 1356 
Q 3559 666 3084 287 
Q 2609 -91 1734 -91 
Q 1441 -91 1130 -33 
Q 819 25 488 141 
L 488 750 
Q 750 597 1062 519 
Q 1375 441 1716 441 
Q 2309 441 2620 675 
Q 2931 909 2931 1356 
Q 2931 1769 2642 2001 
Q 2353 2234 1838 2234 
L 1294 2234 
L 1294 2753 
L 1863 2753 
Q 2328 2753 2575 2939 
Q 2822 3125 2822 3475 
Q 2822 3834 2567 4026 
Q 2313 4219 1838 4219 
Q 1578 4219 1281 4162 
Q 984 4106 628 3988 
L 628 4550 
Q 988 4650 1302 4700 
Q 1616 4750 1894 4750 
Q 2613 4750 3031 4423 
Q 3450 4097 3450 3541 
Q 3450 3153 3228 2886 
Q 3006 2619 2597 2516 
z
" id="DejaVuSans-33" transform="scale(0.015625)"/>
       </defs>
       <use xlink:href="#DejaVuSans-33"/>
       <use x="63.623047" xlink:href="#DejaVuSans-30"/>
       <use x="127.246094" xlink:href="#DejaVuSans-30"/>
      </g>
     </g>
    </g>
    <g id="text_15">
     <!-- #apps -->
     <g transform="translate(18.702813 181.467031)rotate(-90)scale(0.1 -0.1)">
      <defs>
       <path d="M 3272 2816 
L 2363 2816 
L 2100 1772 
L 3016 1772 
L 3272 2816 
z
M 2803 4594 
L 2478 3297 
L 3391 3297 
L 3719 4594 
L 4219 4594 
L 3897 3297 
L 4872 3297 
L 4872 2816 
L 3775 2816 
L 3519 1772 
L 4513 1772 
L 4513 1294 
L 3397 1294 
L 3072 0 
L 2572 0 
L 2894 1294 
L 1978 1294 
L 1656 0 
L 1153 0 
L 1478 1294 
L 494 1294 
L 494 1772 
L 1594 1772 
L 1856 2816 
L 850 2816 
L 850 3297 
L 1978 3297 
L 2297 4594 
L 2803 4594 
z
" id="DejaVuSans-23" transform="scale(0.015625)"/>
       <path d="M 1159 525 
L 1159 -1331 
L 581 -1331 
L 581 3500 
L 1159 3500 
L 1159 2969 
Q 1341 3281 1617 3432 
Q 1894 3584 2278 3584 
Q 2916 3584 3314 3078 
Q 3713 2572 3713 1747 
Q 3713 922 3314 415 
Q 2916 -91 2278 -91 
Q 1894 -91 1617 61 
Q 1341 213 1159 525 
z
M 3116 1747 
Q 3116 2381 2855 2742 
Q 2594 3103 2138 3103 
Q 1681 3103 1420 2742 
Q 1159 2381 1159 1747 
Q 1159 1113 1420 752 
Q 1681 391 2138 391 
Q 2594 391 2855 752 
Q 3116 1113 3116 1747 
z
" id="DejaVuSans-70" transform="scale(0.015625)"/>
      </defs>
      <use xlink:href="#DejaVuSans-23"/>
      <use x="83.789062" xlink:href="#DejaVuSans-61"/>
      <use x="145.068359" xlink:href="#DejaVuSans-70"/>
      <use x="208.544922" xlink:href="#DejaVuSans-70"/>
      <use x="272.021484" xlink:href="#DejaVuSans-73"/>
     </g>
    </g>
   </g>
   <g id="patch_26">
    <path d="M 50.87 303.64 
L 50.87 26.88 
" style="fill:none;stroke:#000000;stroke-linecap:square;stroke-linejoin:miter;stroke-width:0.8;"/>
   </g>
   <g id="patch_27">
    <path d="M 450 303.64 
L 450 26.88 
" style="fill:none;stroke:#000000;stroke-linecap:square;stroke-linejoin:miter;stroke-width:0.8;"/>
   </g>
   <g id="patch_28">
    <path d="M 50.87 303.64 
L 450 303.64 
" style="fill:none;stroke:#000000;stroke-linecap:square;stroke-linejoin:miter;stroke-width:0.8;"/>
   </g>
   <g id="patch_29">
    <path d="M 50.87 26.88 
L 450 26.88 
" style="fill:none;stroke:#000000;stroke-linecap:square;stroke-linejoin:miter;stroke-width:0.8;"/>
   </g>
   <g id="text_16">
    <!-- ratio of requests blocked by tracking filter list per app -->
    <g transform="translate(88.583125 20.88)scale(0.12 -0.12)">
     <defs>
      <path d="M 2059 -325 
Q 1816 -950 1584 -1140 
Q 1353 -1331 966 -1331 
L 506 -1331 
L 506 -850 
L 844 -850 
Q 1081 -850 1212 -737 
Q 1344 -625 1503 -206 
L 1606 56 
L 191 3500 
L 800 3500 
L 1894 763 
L 2988 3500 
L 3597 3500 
L 2059 -325 
z
" id="DejaVuSans-79" transform="scale(0.015625)"/>
      <path d="M 3513 2113 
L 3513 0 
L 2938 0 
L 2938 2094 
Q 2938 2591 2744 2837 
Q 2550 3084 2163 3084 
Q 1697 3084 1428 2787 
Q 1159 2491 1159 1978 
L 1159 0 
L 581 0 
L 581 3500 
L 1159 3500 
L 1159 2956 
Q 1366 3272 1645 3428 
Q 1925 3584 2291 3584 
Q 2894 3584 3203 3211 
Q 3513 2838 3513 2113 
z
" id="DejaVuSans-6e" transform="scale(0.015625)"/>
      <path d="M 2906 1791 
Q 2906 2416 2648 2759 
Q 2391 3103 1925 3103 
Q 1463 3103 1205 2759 
Q 947 2416 947 1791 
Q 947 1169 1205 825 
Q 1463 481 1925 481 
Q 2391 481 2648 825 
Q 2906 1169 2906 1791 
z
M 3481 434 
Q 3481 -459 3084 -895 
Q 2688 -1331 1869 -1331 
Q 1566 -1331 1297 -1286 
Q 1028 -1241 775 -1147 
L 775 -588 
Q 1028 -725 1275 -790 
Q 1522 -856 1778 -856 
Q 2344 -856 2625 -561 
Q 2906 -266 2906 331 
L 2906 616 
Q 2728 306 2450 153 
Q 2172 0 1784 0 
Q 1141 0 747 490 
Q 353 981 353 1791 
Q 353 2603 747 3093 
Q 1141 3584 1784 3584 
Q 2172 3584 2450 3431 
Q 2728 3278 2906 2969 
L 2906 3500 
L 3481 3500 
L 3481 434 
z
" id="DejaVuSans-67" transform="scale(0.015625)"/>
     </defs>
     <use xlink:href="#DejaVuSans-72"/>
     <use x="41.113281" xlink:href="#DejaVuSans-61"/>
     <use x="102.392578" xlink:href="#DejaVuSans-74"/>
     <use x="141.601562" xlink:href="#DejaVuSans-69"/>
     <use x="169.384766" xlink:href="#DejaVuSans-6f"/>
     <use x="230.566406" xlink:href="#DejaVuSans-20"/>
     <use x="262.353516" xlink:href="#DejaVuSans-6f"/>
     <use x="323.535156" xlink:href="#DejaVuSans-66"/>
     <use x="358.740234" xlink:href="#DejaVuSans-20"/>
     <use x="390.527344" xlink:href="#DejaVuSans-72"/>
     <use x="429.390625" xlink:href="#DejaVuSans-65"/>
     <use x="490.914062" xlink:href="#DejaVuSans-71"/>
     <use x="554.390625" xlink:href="#DejaVuSans-75"/>
     <use x="617.769531" xlink:href="#DejaVuSans-65"/>
     <use x="679.292969" xlink:href="#DejaVuSans-73"/>
     <use x="731.392578" xlink:href="#DejaVuSans-74"/>
     <use x="770.601562" xlink:href="#DejaVuSans-73"/>
     <use x="822.701172" xlink:href="#DejaVuSans-20"/>
     <use x="854.488281" xlink:href="#DejaVuSans-62"/>
     <use x="917.964844" xlink:href="#DejaVuSans-6c"/>
     <use x="945.748047" xlink:href="#DejaVuSans-6f"/>
     <use x="1006.929688" xlink:href="#DejaVuSans-63"/>
     <use x="1061.910156" xlink:href="#DejaVuSans-6b"/>
     <use x="1116.195312" xlink:href="#DejaVuSans-65"/>
     <use x="1177.71875" xlink:href="#DejaVuSans-64"/>
     <use x="1241.195312" xlink:href="#DejaVuSans-20"/>
     <use x="1272.982422" xlink:href="#DejaVuSans-62"/>
     <use x="1336.458984" xlink:href="#DejaVuSans-79"/>
     <use x="1395.638672" xlink:href="#DejaVuSans-20"/>
     <use x="1427.425781" xlink:href="#DejaVuSans-74"/>
     <use x="1466.634766" xlink:href="#DejaVuSans-72"/>
     <use x="1507.748047" xlink:href="#DejaVuSans-61"/>
     <use x="1569.027344" xlink:href="#DejaVuSans-63"/>
     <use x="1624.007812" xlink:href="#DejaVuSans-6b"/>
     <use x="1681.917969" xlink:href="#DejaVuSans-69"/>
     <use x="1709.701172" xlink:href="#DejaVuSans-6e"/>
     <use x="1773.080078" xlink:href="#DejaVuSans-67"/>
     <use x="1836.556641" xlink:href="#DejaVuSans-20"/>
     <use x="1868.34375" xlink:href="#DejaVuSans-66"/>
     <use x="1903.548828" xlink:href="#DejaVuSans-69"/>
     <use x="1931.332031" xlink:href="#DejaVuSans-6c"/>
     <use x="1959.115234" xlink:href="#DejaVuSans-74"/>
     <use x="1998.324219" xlink:href="#DejaVuSans-65"/>
     <use x="2059.847656" xlink:href="#DejaVuSans-72"/>
     <use x="2100.960938" xlink:href="#DejaVuSans-20"/>
     <use x="2132.748047" xlink:href="#DejaVuSans-6c"/>
     <use x="2160.53125" xlink:href="#DejaVuSans-69"/>
     <use x="2188.314453" xlink:href="#DejaVuSans-73"/>
     <use x="2240.414062" xlink:href="#DejaVuSans-74"/>
     <use x="2279.623047" xlink:href="#DejaVuSans-20"/>
     <use x="2311.410156" xlink:href="#DejaVuSans-70"/>
     <use x="2374.886719" xlink:href="#DejaVuSans-65"/>
     <use x="2436.410156" xlink:href="#DejaVuSans-72"/>
     <use x="2477.523438" xlink:href="#DejaVuSans-20"/>
     <use x="2509.310547" xlink:href="#DejaVuSans-61"/>
     <use x="2570.589844" xlink:href="#DejaVuSans-70"/>
     <use x="2634.066406" xlink:href="#DejaVuSans-70"/>
    </g>
   </g>
  </g>
 </g>
 <defs>
  <clipPath id="pf47e628eb0">
   <rect height="276.76" width="399.13" x="50.87" y="26.88"/>
  </clipPath>
 </defs>
</svg>
