<?xml version="1.0" encoding="utf-8" standalone="no"?>
<!DOCTYPE svg PUBLIC "-//W3C//DTD SVG 1.1//EN"
  "http://www.w3.org/Graphics/SVG/1.1/DTD/svg11.dtd">
<svg height="345.6pt" version="1.1" viewBox="0 0 460.8 345.6" width="460.8pt" xmlns="http://www.w3.org/2000/svg" xmlns:xlink="http://www.w3.org/1999/xlink">
 <metadata>
  <rdf:RDF xmlns:cc="http://creativecommons.org/ns#" xmlns:dc="http://purl.org/dc/elements/1.1/" xmlns:rdf="http://www.w3.org/1999/02/22-rdf-syntax-ns#">
   <cc:Work>
    <dc:type rdf:resource="http://purl.org/dc/dcmitype/StillImage"/>
    <dc:date>2021-08-02T11:47:20.224088</dc:date>
    <dc:format>image/svg+xml</dc:format>
    <dc:creator>
     <cc:Agent>
      <dc:title>Matplotlib v3.4.2, https://matplotlib.org/</dc:title>
     </cc:Agent>
    </dc:creator>
   </cc:Work>
  </rdf:RDF>
 </metadata>
 <defs>
  <style type="text/css">*{stroke-linecap:butt;stroke-linejoin:round;}</style>
 </defs>
 <g id="figure_1">
  <g id="patch_1">
   <path d="M 0 345.6 
L 460.8 345.6 
L 460.8 0 
L 0 0 
z
" style="fill:#ffffff;"/>
  </g>
  <g id="axes_1">
   <g id="patch_2">
    <path d="M 50.87 303.64 
L 450 303.64 
L 450 26.88 
L 50.87 26.88 
z
" style="fill:#ffffff;"/>
   </g>
   <g id="patch_3">
    <path clip-path="url(#p799336137b)" d="M 69.012273 303.64 
L 79.091313 303.64 
L 79.091313 40.059048 
L 69.012273 40.059048 
z
" style="fill:#bc1d3b;"/>
   </g>
   <g id="patch_4">
    <path clip-path="url(#p799336137b)" d="M 79.091313 303.64 
L 89.170354 303.64 
L 89.170354 159.746317 
L 79.091313 159.746317 
z
" style="fill:#bc1d3b;"/>
   </g>
   <g id="patch_5">
    <path clip-path="url(#p799336137b)" d="M 89.170354 303.64 
L 99.249394 303.64 
L 99.249394 178.573528 
L 89.170354 178.573528 
z
" style="fill:#bc1d3b;"/>
   </g>
   <g id="patch_6">
    <path clip-path="url(#p799336137b)" d="M 99.249394 303.64 
L 109.328434 303.64 
L 109.328434 175.883926 
L 99.249394 175.883926 
z
" style="fill:#bc1d3b;"/>
   </g>
   <g id="patch_7">
    <path clip-path="url(#p799336137b)" d="M 109.328434 303.64 
L 119.407475 303.64 
L 119.407475 186.642332 
L 109.328434 186.642332 
z
" style="fill:#bc1d3b;"/>
   </g>
   <g id="patch_8">
    <path clip-path="url(#p799336137b)" d="M 119.407475 303.64 
L 129.486515 303.64 
L 129.486515 205.469543 
L 119.407475 205.469543 
z
" style="fill:#bc1d3b;"/>
   </g>
   <g id="patch_9">
    <path clip-path="url(#p799336137b)" d="M 129.486515 303.64 
L 139.565556 303.64 
L 139.565556 140.919106 
L 129.486515 140.919106 
z
" style="fill:#bc1d3b;"/>
   </g>
   <g id="patch_10">
    <path clip-path="url(#p799336137b)" d="M 139.565556 303.64 
L 149.644596 303.64 
L 149.644596 235.05516 
L 139.565556 235.05516 
z
" style="fill:#bc1d3b;"/>
   </g>
   <g id="patch_11">
    <path clip-path="url(#p799336137b)" d="M 149.644596 303.64 
L 159.723636 303.64 
L 159.723636 249.847969 
L 149.644596 249.847969 
z
" style="fill:#bc1d3b;"/>
   </g>
   <g id="patch_12">
    <path clip-path="url(#p799336137b)" d="M 159.723636 303.64 
L 169.802677 303.64 
L 169.802677 263.295977 
L 159.723636 263.295977 
z
" style="fill:#bc1d3b;"/>
   </g>
   <g id="patch_13">
    <path clip-path="url(#p799336137b)" d="M 169.802677 303.64 
L 179.881717 303.64 
L 179.881717 282.123188 
L 169.802677 282.123188 
z
" style="fill:#bc1d3b;"/>
   </g>
   <g id="patch_14">
    <path clip-path="url(#p799336137b)" d="M 179.881717 303.64 
L 189.960758 303.64 
L 189.960758 290.191992 
L 179.881717 290.191992 
z
" style="fill:#bc1d3b;"/>
   </g>
   <g id="patch_15">
    <path clip-path="url(#p799336137b)" d="M 189.960758 303.64 
L 200.039798 303.64 
L 200.039798 290.191992 
L 189.960758 290.191992 
z
" style="fill:#bc1d3b;"/>
   </g>
   <g id="patch_16">
    <path clip-path="url(#p799336137b)" d="M 200.039798 303.64 
L 210.118838 303.64 
L 210.118838 291.536793 
L 200.039798 291.536793 
z
" style="fill:#bc1d3b;"/>
   </g>
   <g id="patch_17">
    <path clip-path="url(#p799336137b)" d="M 210.118838 303.64 
L 220.197879 303.64 
L 220.197879 298.260797 
L 210.118838 298.260797 
z
" style="fill:#bc1d3b;"/>
   </g>
   <g id="patch_18">
    <path clip-path="url(#p799336137b)" d="M 220.197879 303.64 
L 230.276919 303.64 
L 230.276919 298.260797 
L 220.197879 298.260797 
z
" style="fill:#bc1d3b;"/>
   </g>
   <g id="patch_19">
    <path clip-path="url(#p799336137b)" d="M 230.276919 303.64 
L 240.35596 303.64 
L 240.35596 294.226395 
L 230.276919 294.226395 
z
" style="fill:#bc1d3b;"/>
   </g>
   <g id="patch_20">
    <path clip-path="url(#p799336137b)" d="M 240.35596 303.64 
L 250.435 303.64 
L 250.435 296.915996 
L 240.35596 296.915996 
z
" style="fill:#bc1d3b;"/>
   </g>
   <g id="patch_21">
    <path clip-path="url(#p799336137b)" d="M 250.435 303.64 
L 260.51404 303.64 
L 260.51404 295.571195 
L 250.435 295.571195 
z
" style="fill:#bc1d3b;"/>
   </g>
   <g id="patch_22">
    <path clip-path="url(#p799336137b)" d="M 260.51404 303.64 
L 270.593081 303.64 
L 270.593081 302.295199 
L 260.51404 302.295199 
z
" style="fill:#bc1d3b;"/>
   </g>
   <g id="patch_23">
    <path clip-path="url(#p799336137b)" d="M 270.593081 303.64 
L 280.672121 303.64 
L 280.672121 300.950398 
L 270.593081 300.950398 
z
" style="fill:#bc1d3b;"/>
   </g>
   <g id="patch_24">
    <path clip-path="url(#p799336137b)" d="M 280.672121 303.64 
L 290.751162 303.64 
L 290.751162 296.915996 
L 280.672121 296.915996 
z
" style="fill:#bc1d3b;"/>
   </g>
   <g id="patch_25">
    <path clip-path="url(#p799336137b)" d="M 290.751162 303.64 
L 300.830202 303.64 
L 300.830202 299.605598 
L 290.751162 299.605598 
z
" style="fill:#bc1d3b;"/>
   </g>
   <g id="patch_26">
    <path clip-path="url(#p799336137b)" d="M 300.830202 303.64 
L 310.909242 303.64 
L 310.909242 298.260797 
L 300.830202 298.260797 
z
" style="fill:#bc1d3b;"/>
   </g>
   <g id="patch_27">
    <path clip-path="url(#p799336137b)" d="M 310.909242 303.64 
L 320.988283 303.64 
L 320.988283 295.571195 
L 310.909242 295.571195 
z
" style="fill:#bc1d3b;"/>
   </g>
   <g id="patch_28">
    <path clip-path="url(#p799336137b)" d="M 320.988283 303.64 
L 331.067323 303.64 
L 331.067323 296.915996 
L 320.988283 296.915996 
z
" style="fill:#bc1d3b;"/>
   </g>
   <g id="patch_29">
    <path clip-path="url(#p799336137b)" d="M 331.067323 303.64 
L 341.146364 303.64 
L 341.146364 302.295199 
L 331.067323 302.295199 
z
" style="fill:#bc1d3b;"/>
   </g>
   <g id="patch_30">
    <path clip-path="url(#p799336137b)" d="M 341.146364 303.64 
L 351.225404 303.64 
L 351.225404 300.950398 
L 341.146364 300.950398 
z
" style="fill:#bc1d3b;"/>
   </g>
   <g id="patch_31">
    <path clip-path="url(#p799336137b)" d="M 351.225404 303.64 
L 361.304444 303.64 
L 361.304444 303.64 
L 351.225404 303.64 
z
" style="fill:#bc1d3b;"/>
   </g>
   <g id="patch_32">
    <path clip-path="url(#p799336137b)" d="M 361.304444 303.64 
L 371.383485 303.64 
L 371.383485 300.950398 
L 361.304444 300.950398 
z
" style="fill:#bc1d3b;"/>
   </g>
   <g id="patch_33">
    <path clip-path="url(#p799336137b)" d="M 371.383485 303.64 
L 381.462525 303.64 
L 381.462525 298.260797 
L 371.383485 298.260797 
z
" style="fill:#bc1d3b;"/>
   </g>
   <g id="patch_34">
    <path clip-path="url(#p799336137b)" d="M 381.462525 303.64 
L 391.541566 303.64 
L 391.541566 303.64 
L 381.462525 303.64 
z
" style="fill:#bc1d3b;"/>
   </g>
   <g id="patch_35">
    <path clip-path="url(#p799336137b)" d="M 391.541566 303.64 
L 401.620606 303.64 
L 401.620606 303.64 
L 391.541566 303.64 
z
" style="fill:#bc1d3b;"/>
   </g>
   <g id="patch_36">
    <path clip-path="url(#p799336137b)" d="M 401.620606 303.64 
L 411.699646 303.64 
L 411.699646 303.64 
L 401.620606 303.64 
z
" style="fill:#bc1d3b;"/>
   </g>
   <g id="patch_37">
    <path clip-path="url(#p799336137b)" d="M 411.699646 303.64 
L 421.778687 303.64 
L 421.778687 303.64 
L 411.699646 303.64 
z
" style="fill:#bc1d3b;"/>
   </g>
   <g id="patch_38">
    <path clip-path="url(#p799336137b)" d="M 421.778687 303.64 
L 431.857727 303.64 
L 431.857727 300.950398 
L 421.778687 300.950398 
z
" style="fill:#bc1d3b;"/>
   </g>
   <g id="matplotlib.axis_1">
    <g id="xtick_1">
     <g id="line2d_1">
      <defs>
       <path d="M 0 0 
L 0 3.5 
" id="md228edaad6" style="stroke:#000000;stroke-width:0.8;"/>
      </defs>
      <g>
       <use style="stroke:#000000;stroke-width:0.8;" x="69.012273" xlink:href="#md228edaad6" y="303.64"/>
      </g>
     </g>
     <g id="text_1">
      <!-- 0 -->
      <g transform="translate(65.831023 318.238437)scale(0.1 -0.1)">
       <defs>
        <path d="M 2034 4250 
Q 1547 4250 1301 3770 
Q 1056 3291 1056 2328 
Q 1056 1369 1301 889 
Q 1547 409 2034 409 
Q 2525 409 2770 889 
Q 3016 1369 3016 2328 
Q 3016 3291 2770 3770 
Q 2525 4250 2034 4250 
z
M 2034 4750 
Q 2819 4750 3233 4129 
Q 3647 3509 3647 2328 
Q 3647 1150 3233 529 
Q 2819 -91 2034 -91 
Q 1250 -91 836 529 
Q 422 1150 422 2328 
Q 422 3509 836 4129 
Q 1250 4750 2034 4750 
z
" id="DejaVuSans-30" transform="scale(0.015625)"/>
       </defs>
       <use xlink:href="#DejaVuSans-30"/>
      </g>
     </g>
    </g>
    <g id="xtick_2">
     <g id="line2d_2">
      <g>
       <use style="stroke:#000000;stroke-width:0.8;" x="115.530921" xlink:href="#md228edaad6" y="303.64"/>
      </g>
     </g>
     <g id="text_2">
      <!-- 10 -->
      <g transform="translate(109.168421 318.238437)scale(0.1 -0.1)">
       <defs>
        <path d="M 794 531 
L 1825 531 
L 1825 4091 
L 703 3866 
L 703 4441 
L 1819 4666 
L 2450 4666 
L 2450 531 
L 3481 531 
L 3481 0 
L 794 0 
L 794 531 
z
" id="DejaVuSans-31" transform="scale(0.015625)"/>
       </defs>
       <use xlink:href="#DejaVuSans-31"/>
       <use x="63.623047" xlink:href="#DejaVuSans-30"/>
      </g>
     </g>
    </g>
    <g id="xtick_3">
     <g id="line2d_3">
      <g>
       <use style="stroke:#000000;stroke-width:0.8;" x="162.049569" xlink:href="#md228edaad6" y="303.64"/>
      </g>
     </g>
     <g id="text_3">
      <!-- 20 -->
      <g transform="translate(155.687069 318.238437)scale(0.1 -0.1)">
       <defs>
        <path d="M 1228 531 
L 3431 531 
L 3431 0 
L 469 0 
L 469 531 
Q 828 903 1448 1529 
Q 2069 2156 2228 2338 
Q 2531 2678 2651 2914 
Q 2772 3150 2772 3378 
Q 2772 3750 2511 3984 
Q 2250 4219 1831 4219 
Q 1534 4219 1204 4116 
Q 875 4013 500 3803 
L 500 4441 
Q 881 4594 1212 4672 
Q 1544 4750 1819 4750 
Q 2544 4750 2975 4387 
Q 3406 4025 3406 3419 
Q 3406 3131 3298 2873 
Q 3191 2616 2906 2266 
Q 2828 2175 2409 1742 
Q 1991 1309 1228 531 
z
" id="DejaVuSans-32" transform="scale(0.015625)"/>
       </defs>
       <use xlink:href="#DejaVuSans-32"/>
       <use x="63.623047" xlink:href="#DejaVuSans-30"/>
      </g>
     </g>
    </g>
    <g id="xtick_4">
     <g id="line2d_4">
      <g>
       <use style="stroke:#000000;stroke-width:0.8;" x="208.568217" xlink:href="#md228edaad6" y="303.64"/>
      </g>
     </g>
     <g id="text_4">
      <!-- 30 -->
      <g transform="translate(202.205717 318.238437)scale(0.1 -0.1)">
       <defs>
        <path d="M 2597 2516 
Q 3050 2419 3304 2112 
Q 3559 1806 3559 1356 
Q 3559 666 3084 287 
Q 2609 -91 1734 -91 
Q 1441 -91 1130 -33 
Q 819 25 488 141 
L 488 750 
Q 750 597 1062 519 
Q 1375 441 1716 441 
Q 2309 441 2620 675 
Q 2931 909 2931 1356 
Q 2931 1769 2642 2001 
Q 2353 2234 1838 2234 
L 1294 2234 
L 1294 2753 
L 1863 2753 
Q 2328 2753 2575 2939 
Q 2822 3125 2822 3475 
Q 2822 3834 2567 4026 
Q 2313 4219 1838 4219 
Q 1578 4219 1281 4162 
Q 984 4106 628 3988 
L 628 4550 
Q 988 4650 1302 4700 
Q 1616 4750 1894 4750 
Q 2613 4750 3031 4423 
Q 3450 4097 3450 3541 
Q 3450 3153 3228 2886 
Q 3006 2619 2597 2516 
z
" id="DejaVuSans-33" transform="scale(0.015625)"/>
       </defs>
       <use xlink:href="#DejaVuSans-33"/>
       <use x="63.623047" xlink:href="#DejaVuSans-30"/>
      </g>
     </g>
    </g>
    <g id="xtick_5">
     <g id="line2d_5">
      <g>
       <use style="stroke:#000000;stroke-width:0.8;" x="255.086865" xlink:href="#md228edaad6" y="303.64"/>
      </g>
     </g>
     <g id="text_5">
      <!-- 40 -->
      <g transform="translate(248.724365 318.238437)scale(0.1 -0.1)">
       <defs>
        <path d="M 2419 4116 
L 825 1625 
L 2419 1625 
L 2419 4116 
z
M 2253 4666 
L 3047 4666 
L 3047 1625 
L 3713 1625 
L 3713 1100 
L 3047 1100 
L 3047 0 
L 2419 0 
L 2419 1100 
L 313 1100 
L 313 1709 
L 2253 4666 
z
" id="DejaVuSans-34" transform="scale(0.015625)"/>
       </defs>
       <use xlink:href="#DejaVuSans-34"/>
       <use x="63.623047" xlink:href="#DejaVuSans-30"/>
      </g>
     </g>
    </g>
    <g id="xtick_6">
     <g id="line2d_6">
      <g>
       <use style="stroke:#000000;stroke-width:0.8;" x="301.605513" xlink:href="#md228edaad6" y="303.64"/>
      </g>
     </g>
     <g id="text_6">
      <!-- 50 -->
      <g transform="translate(295.243013 318.238437)scale(0.1 -0.1)">
       <defs>
        <path d="M 691 4666 
L 3169 4666 
L 3169 4134 
L 1269 4134 
L 1269 2991 
Q 1406 3038 1543 3061 
Q 1681 3084 1819 3084 
Q 2600 3084 3056 2656 
Q 3513 2228 3513 1497 
Q 3513 744 3044 326 
Q 2575 -91 1722 -91 
Q 1428 -91 1123 -41 
Q 819 9 494 109 
L 494 744 
Q 775 591 1075 516 
Q 1375 441 1709 441 
Q 2250 441 2565 725 
Q 2881 1009 2881 1497 
Q 2881 1984 2565 2268 
Q 2250 2553 1709 2553 
Q 1456 2553 1204 2497 
Q 953 2441 691 2322 
L 691 4666 
z
" id="DejaVuSans-35" transform="scale(0.015625)"/>
       </defs>
       <use xlink:href="#DejaVuSans-35"/>
       <use x="63.623047" xlink:href="#DejaVuSans-30"/>
      </g>
     </g>
    </g>
    <g id="xtick_7">
     <g id="line2d_7">
      <g>
       <use style="stroke:#000000;stroke-width:0.8;" x="348.124161" xlink:href="#md228edaad6" y="303.64"/>
      </g>
     </g>
     <g id="text_7">
      <!-- 60 -->
      <g transform="translate(341.761661 318.238437)scale(0.1 -0.1)">
       <defs>
        <path d="M 2113 2584 
Q 1688 2584 1439 2293 
Q 1191 2003 1191 1497 
Q 1191 994 1439 701 
Q 1688 409 2113 409 
Q 2538 409 2786 701 
Q 3034 994 3034 1497 
Q 3034 2003 2786 2293 
Q 2538 2584 2113 2584 
z
M 3366 4563 
L 3366 3988 
Q 3128 4100 2886 4159 
Q 2644 4219 2406 4219 
Q 1781 4219 1451 3797 
Q 1122 3375 1075 2522 
Q 1259 2794 1537 2939 
Q 1816 3084 2150 3084 
Q 2853 3084 3261 2657 
Q 3669 2231 3669 1497 
Q 3669 778 3244 343 
Q 2819 -91 2113 -91 
Q 1303 -91 875 529 
Q 447 1150 447 2328 
Q 447 3434 972 4092 
Q 1497 4750 2381 4750 
Q 2619 4750 2861 4703 
Q 3103 4656 3366 4563 
z
" id="DejaVuSans-36" transform="scale(0.015625)"/>
       </defs>
       <use xlink:href="#DejaVuSans-36"/>
       <use x="63.623047" xlink:href="#DejaVuSans-30"/>
      </g>
     </g>
    </g>
    <g id="xtick_8">
     <g id="line2d_8">
      <g>
       <use style="stroke:#000000;stroke-width:0.8;" x="394.642809" xlink:href="#md228edaad6" y="303.64"/>
      </g>
     </g>
     <g id="text_8">
      <!-- 70 -->
      <g transform="translate(388.280309 318.238437)scale(0.1 -0.1)">
       <defs>
        <path d="M 525 4666 
L 3525 4666 
L 3525 4397 
L 1831 0 
L 1172 0 
L 2766 4134 
L 525 4134 
L 525 4666 
z
" id="DejaVuSans-37" transform="scale(0.015625)"/>
       </defs>
       <use xlink:href="#DejaVuSans-37"/>
       <use x="63.623047" xlink:href="#DejaVuSans-30"/>
      </g>
     </g>
    </g>
    <g id="xtick_9">
     <g id="line2d_9">
      <g>
       <use style="stroke:#000000;stroke-width:0.8;" x="441.161457" xlink:href="#md228edaad6" y="303.64"/>
      </g>
     </g>
     <g id="text_9">
      <!-- 80 -->
      <g transform="translate(434.798957 318.238437)scale(0.1 -0.1)">
       <defs>
        <path d="M 2034 2216 
Q 1584 2216 1326 1975 
Q 1069 1734 1069 1313 
Q 1069 891 1326 650 
Q 1584 409 2034 409 
Q 2484 409 2743 651 
Q 3003 894 3003 1313 
Q 3003 1734 2745 1975 
Q 2488 2216 2034 2216 
z
M 1403 2484 
Q 997 2584 770 2862 
Q 544 3141 544 3541 
Q 544 4100 942 4425 
Q 1341 4750 2034 4750 
Q 2731 4750 3128 4425 
Q 3525 4100 3525 3541 
Q 3525 3141 3298 2862 
Q 3072 2584 2669 2484 
Q 3125 2378 3379 2068 
Q 3634 1759 3634 1313 
Q 3634 634 3220 271 
Q 2806 -91 2034 -91 
Q 1263 -91 848 271 
Q 434 634 434 1313 
Q 434 1759 690 2068 
Q 947 2378 1403 2484 
z
M 1172 3481 
Q 1172 3119 1398 2916 
Q 1625 2713 2034 2713 
Q 2441 2713 2670 2916 
Q 2900 3119 2900 3481 
Q 2900 3844 2670 4047 
Q 2441 4250 2034 4250 
Q 1625 4250 1398 4047 
Q 1172 3844 1172 3481 
z
" id="DejaVuSans-38" transform="scale(0.015625)"/>
       </defs>
       <use xlink:href="#DejaVuSans-38"/>
       <use x="63.623047" xlink:href="#DejaVuSans-30"/>
      </g>
     </g>
    </g>
    <g id="text_10">
     <!-- #hosts -->
     <g transform="translate(232.8475 331.916562)scale(0.1 -0.1)">
      <defs>
       <path d="M 3272 2816 
L 2363 2816 
L 2100 1772 
L 3016 1772 
L 3272 2816 
z
M 2803 4594 
L 2478 3297 
L 3391 3297 
L 3719 4594 
L 4219 4594 
L 3897 3297 
L 4872 3297 
L 4872 2816 
L 3775 2816 
L 3519 1772 
L 4513 1772 
L 4513 1294 
L 3397 1294 
L 3072 0 
L 2572 0 
L 2894 1294 
L 1978 1294 
L 1656 0 
L 1153 0 
L 1478 1294 
L 494 1294 
L 494 1772 
L 1594 1772 
L 1856 2816 
L 850 2816 
L 850 3297 
L 1978 3297 
L 2297 4594 
L 2803 4594 
z
" id="DejaVuSans-23" transform="scale(0.015625)"/>
       <path d="M 3513 2113 
L 3513 0 
L 2938 0 
L 2938 2094 
Q 2938 2591 2744 2837 
Q 2550 3084 2163 3084 
Q 1697 3084 1428 2787 
Q 1159 2491 1159 1978 
L 1159 0 
L 581 0 
L 581 4863 
L 1159 4863 
L 1159 2956 
Q 1366 3272 1645 3428 
Q 1925 3584 2291 3584 
Q 2894 3584 3203 3211 
Q 3513 2838 3513 2113 
z
" id="DejaVuSans-68" transform="scale(0.015625)"/>
       <path d="M 1959 3097 
Q 1497 3097 1228 2736 
Q 959 2375 959 1747 
Q 959 1119 1226 758 
Q 1494 397 1959 397 
Q 2419 397 2687 759 
Q 2956 1122 2956 1747 
Q 2956 2369 2687 2733 
Q 2419 3097 1959 3097 
z
M 1959 3584 
Q 2709 3584 3137 3096 
Q 3566 2609 3566 1747 
Q 3566 888 3137 398 
Q 2709 -91 1959 -91 
Q 1206 -91 779 398 
Q 353 888 353 1747 
Q 353 2609 779 3096 
Q 1206 3584 1959 3584 
z
" id="DejaVuSans-6f" transform="scale(0.015625)"/>
       <path d="M 2834 3397 
L 2834 2853 
Q 2591 2978 2328 3040 
Q 2066 3103 1784 3103 
Q 1356 3103 1142 2972 
Q 928 2841 928 2578 
Q 928 2378 1081 2264 
Q 1234 2150 1697 2047 
L 1894 2003 
Q 2506 1872 2764 1633 
Q 3022 1394 3022 966 
Q 3022 478 2636 193 
Q 2250 -91 1575 -91 
Q 1294 -91 989 -36 
Q 684 19 347 128 
L 347 722 
Q 666 556 975 473 
Q 1284 391 1588 391 
Q 1994 391 2212 530 
Q 2431 669 2431 922 
Q 2431 1156 2273 1281 
Q 2116 1406 1581 1522 
L 1381 1569 
Q 847 1681 609 1914 
Q 372 2147 372 2553 
Q 372 3047 722 3315 
Q 1072 3584 1716 3584 
Q 2034 3584 2315 3537 
Q 2597 3491 2834 3397 
z
" id="DejaVuSans-73" transform="scale(0.015625)"/>
       <path d="M 1172 4494 
L 1172 3500 
L 2356 3500 
L 2356 3053 
L 1172 3053 
L 1172 1153 
Q 1172 725 1289 603 
Q 1406 481 1766 481 
L 2356 481 
L 2356 0 
L 1766 0 
Q 1100 0 847 248 
Q 594 497 594 1153 
L 594 3053 
L 172 3053 
L 172 3500 
L 594 3500 
L 594 4494 
L 1172 4494 
z
" id="DejaVuSans-74" transform="scale(0.015625)"/>
      </defs>
      <use xlink:href="#DejaVuSans-23"/>
      <use x="83.789062" xlink:href="#DejaVuSans-68"/>
      <use x="147.167969" xlink:href="#DejaVuSans-6f"/>
      <use x="208.349609" xlink:href="#DejaVuSans-73"/>
      <use x="260.449219" xlink:href="#DejaVuSans-74"/>
      <use x="299.658203" xlink:href="#DejaVuSans-73"/>
     </g>
    </g>
   </g>
   <g id="matplotlib.axis_2">
    <g id="ytick_1">
     <g id="line2d_10">
      <defs>
       <path d="M 0 0 
L -3.5 0 
" id="m606b7a2a91" style="stroke:#000000;stroke-width:0.8;"/>
      </defs>
      <g>
       <use style="stroke:#000000;stroke-width:0.8;" x="50.87" xlink:href="#m606b7a2a91" y="303.64"/>
      </g>
     </g>
     <g id="text_11">
      <!-- 0 -->
      <g transform="translate(37.5075 307.439219)scale(0.1 -0.1)">
       <use xlink:href="#DejaVuSans-30"/>
      </g>
     </g>
    </g>
    <g id="ytick_2">
     <g id="line2d_11">
      <g>
       <use style="stroke:#000000;stroke-width:0.8;" x="50.87" xlink:href="#m606b7a2a91" y="270.019981"/>
      </g>
     </g>
     <g id="text_12">
      <!-- 25 -->
      <g transform="translate(31.145 273.819199)scale(0.1 -0.1)">
       <use xlink:href="#DejaVuSans-32"/>
       <use x="63.623047" xlink:href="#DejaVuSans-35"/>
      </g>
     </g>
    </g>
    <g id="ytick_3">
     <g id="line2d_12">
      <g>
       <use style="stroke:#000000;stroke-width:0.8;" x="50.87" xlink:href="#m606b7a2a91" y="236.399961"/>
      </g>
     </g>
     <g id="text_13">
      <!-- 50 -->
      <g transform="translate(31.145 240.19918)scale(0.1 -0.1)">
       <use xlink:href="#DejaVuSans-35"/>
       <use x="63.623047" xlink:href="#DejaVuSans-30"/>
      </g>
     </g>
    </g>
    <g id="ytick_4">
     <g id="line2d_13">
      <g>
       <use style="stroke:#000000;stroke-width:0.8;" x="50.87" xlink:href="#m606b7a2a91" y="202.779942"/>
      </g>
     </g>
     <g id="text_14">
      <!-- 75 -->
      <g transform="translate(31.145 206.57916)scale(0.1 -0.1)">
       <use xlink:href="#DejaVuSans-37"/>
       <use x="63.623047" xlink:href="#DejaVuSans-35"/>
      </g>
     </g>
    </g>
    <g id="ytick_5">
     <g id="line2d_14">
      <g>
       <use style="stroke:#000000;stroke-width:0.8;" x="50.87" xlink:href="#m606b7a2a91" y="169.159922"/>
      </g>
     </g>
     <g id="text_15">
      <!-- 100 -->
      <g transform="translate(24.7825 172.959141)scale(0.1 -0.1)">
       <use xlink:href="#DejaVuSans-31"/>
       <use x="63.623047" xlink:href="#DejaVuSans-30"/>
       <use x="127.246094" xlink:href="#DejaVuSans-30"/>
      </g>
     </g>
    </g>
    <g id="ytick_6">
     <g id="line2d_15">
      <g>
       <use style="stroke:#000000;stroke-width:0.8;" x="50.87" xlink:href="#m606b7a2a91" y="135.539903"/>
      </g>
     </g>
     <g id="text_16">
      <!-- 125 -->
      <g transform="translate(24.7825 139.339122)scale(0.1 -0.1)">
       <use xlink:href="#DejaVuSans-31"/>
       <use x="63.623047" xlink:href="#DejaVuSans-32"/>
       <use x="127.246094" xlink:href="#DejaVuSans-35"/>
      </g>
     </g>
    </g>
    <g id="ytick_7">
     <g id="line2d_16">
      <g>
       <use style="stroke:#000000;stroke-width:0.8;" x="50.87" xlink:href="#m606b7a2a91" y="101.919883"/>
      </g>
     </g>
     <g id="text_17">
      <!-- 150 -->
      <g transform="translate(24.7825 105.719102)scale(0.1 -0.1)">
       <use xlink:href="#DejaVuSans-31"/>
       <use x="63.623047" xlink:href="#DejaVuSans-35"/>
       <use x="127.246094" xlink:href="#DejaVuSans-30"/>
      </g>
     </g>
    </g>
    <g id="ytick_8">
     <g id="line2d_17">
      <g>
       <use style="stroke:#000000;stroke-width:0.8;" x="50.87" xlink:href="#m606b7a2a91" y="68.299864"/>
      </g>
     </g>
     <g id="text_18">
      <!-- 175 -->
      <g transform="translate(24.7825 72.099083)scale(0.1 -0.1)">
       <use xlink:href="#DejaVuSans-31"/>
       <use x="63.623047" xlink:href="#DejaVuSans-37"/>
       <use x="127.246094" xlink:href="#DejaVuSans-35"/>
      </g>
     </g>
    </g>
    <g id="ytick_9">
     <g id="line2d_18">
      <g>
       <use style="stroke:#000000;stroke-width:0.8;" x="50.87" xlink:href="#m606b7a2a91" y="34.679845"/>
      </g>
     </g>
     <g id="text_19">
      <!-- 200 -->
      <g transform="translate(24.7825 38.479063)scale(0.1 -0.1)">
       <use xlink:href="#DejaVuSans-32"/>
       <use x="63.623047" xlink:href="#DejaVuSans-30"/>
       <use x="127.246094" xlink:href="#DejaVuSans-30"/>
      </g>
     </g>
    </g>
    <g id="text_20">
     <!-- #apps -->
     <g transform="translate(18.702813 181.467031)rotate(-90)scale(0.1 -0.1)">
      <defs>
       <path d="M 2194 1759 
Q 1497 1759 1228 1600 
Q 959 1441 959 1056 
Q 959 750 1161 570 
Q 1363 391 1709 391 
Q 2188 391 2477 730 
Q 2766 1069 2766 1631 
L 2766 1759 
L 2194 1759 
z
M 3341 1997 
L 3341 0 
L 2766 0 
L 2766 531 
Q 2569 213 2275 61 
Q 1981 -91 1556 -91 
Q 1019 -91 701 211 
Q 384 513 384 1019 
Q 384 1609 779 1909 
Q 1175 2209 1959 2209 
L 2766 2209 
L 2766 2266 
Q 2766 2663 2505 2880 
Q 2244 3097 1772 3097 
Q 1472 3097 1187 3025 
Q 903 2953 641 2809 
L 641 3341 
Q 956 3463 1253 3523 
Q 1550 3584 1831 3584 
Q 2591 3584 2966 3190 
Q 3341 2797 3341 1997 
z
" id="DejaVuSans-61" transform="scale(0.015625)"/>
       <path d="M 1159 525 
L 1159 -1331 
L 581 -1331 
L 581 3500 
L 1159 3500 
L 1159 2969 
Q 1341 3281 1617 3432 
Q 1894 3584 2278 3584 
Q 2916 3584 3314 3078 
Q 3713 2572 3713 1747 
Q 3713 922 3314 415 
Q 2916 -91 2278 -91 
Q 1894 -91 1617 61 
Q 1341 213 1159 525 
z
M 3116 1747 
Q 3116 2381 2855 2742 
Q 2594 3103 2138 3103 
Q 1681 3103 1420 2742 
Q 1159 2381 1159 1747 
Q 1159 1113 1420 752 
Q 1681 391 2138 391 
Q 2594 391 2855 752 
Q 3116 1113 3116 1747 
z
" id="DejaVuSans-70" transform="scale(0.015625)"/>
      </defs>
      <use xlink:href="#DejaVuSans-23"/>
      <use x="83.789062" xlink:href="#DejaVuSans-61"/>
      <use x="145.068359" xlink:href="#DejaVuSans-70"/>
      <use x="208.544922" xlink:href="#DejaVuSans-70"/>
      <use x="272.021484" xlink:href="#DejaVuSans-73"/>
     </g>
    </g>
   </g>
   <g id="patch_39">
    <path d="M 50.87 303.64 
L 50.87 26.88 
" style="fill:none;stroke:#000000;stroke-linecap:square;stroke-linejoin:miter;stroke-width:0.8;"/>
   </g>
   <g id="patch_40">
    <path d="M 450 303.64 
L 450 26.88 
" style="fill:none;stroke:#000000;stroke-linecap:square;stroke-linejoin:miter;stroke-width:0.8;"/>
   </g>
   <g id="patch_41">
    <path d="M 50.87 303.64 
L 450 303.64 
" style="fill:none;stroke:#000000;stroke-linecap:square;stroke-linejoin:miter;stroke-width:0.8;"/>
   </g>
   <g id="patch_42">
    <path d="M 50.87 26.88 
L 450 26.88 
" style="fill:none;stroke:#000000;stroke-linecap:square;stroke-linejoin:miter;stroke-width:0.8;"/>
   </g>
   <g id="text_21">
    <!-- #hosts per app -->
    <g transform="translate(204.25375 20.88)scale(0.12 -0.12)">
     <defs>
      <path id="DejaVuSans-20" transform="scale(0.015625)"/>
      <path d="M 3597 1894 
L 3597 1613 
L 953 1613 
Q 991 1019 1311 708 
Q 1631 397 2203 397 
Q 2534 397 2845 478 
Q 3156 559 3463 722 
L 3463 178 
Q 3153 47 2828 -22 
Q 2503 -91 2169 -91 
Q 1331 -91 842 396 
Q 353 884 353 1716 
Q 353 2575 817 3079 
Q 1281 3584 2069 3584 
Q 2775 3584 3186 3129 
Q 3597 2675 3597 1894 
z
M 3022 2063 
Q 3016 2534 2758 2815 
Q 2500 3097 2075 3097 
Q 1594 3097 1305 2825 
Q 1016 2553 972 2059 
L 3022 2063 
z
" id="DejaVuSans-65" transform="scale(0.015625)"/>
      <path d="M 2631 2963 
Q 2534 3019 2420 3045 
Q 2306 3072 2169 3072 
Q 1681 3072 1420 2755 
Q 1159 2438 1159 1844 
L 1159 0 
L 581 0 
L 581 3500 
L 1159 3500 
L 1159 2956 
Q 1341 3275 1631 3429 
Q 1922 3584 2338 3584 
Q 2397 3584 2469 3576 
Q 2541 3569 2628 3553 
L 2631 2963 
z
" id="DejaVuSans-72" transform="scale(0.015625)"/>
     </defs>
     <use xlink:href="#DejaVuSans-23"/>
     <use x="83.789062" xlink:href="#DejaVuSans-68"/>
     <use x="147.167969" xlink:href="#DejaVuSans-6f"/>
     <use x="208.349609" xlink:href="#DejaVuSans-73"/>
     <use x="260.449219" xlink:href="#DejaVuSans-74"/>
     <use x="299.658203" xlink:href="#DejaVuSans-73"/>
     <use x="351.757812" xlink:href="#DejaVuSans-20"/>
     <use x="383.544922" xlink:href="#DejaVuSans-70"/>
     <use x="447.021484" xlink:href="#DejaVuSans-65"/>
     <use x="508.544922" xlink:href="#DejaVuSans-72"/>
     <use x="549.658203" xlink:href="#DejaVuSans-20"/>
     <use x="581.445312" xlink:href="#DejaVuSans-61"/>
     <use x="642.724609" xlink:href="#DejaVuSans-70"/>
     <use x="706.201172" xlink:href="#DejaVuSans-70"/>
    </g>
   </g>
  </g>
 </g>
 <defs>
  <clipPath id="p799336137b">
   <rect height="276.76" width="399.13" x="50.87" y="26.88"/>
  </clipPath>
 </defs>
</svg>
