<?xml version="1.0" encoding="utf-8" standalone="no"?>
<!DOCTYPE svg PUBLIC "-//W3C//DTD SVG 1.1//EN"
  "http://www.w3.org/Graphics/SVG/1.1/DTD/svg11.dtd">
<svg height="345.6pt" version="1.1" viewBox="0 0 460.8 345.6" width="460.8pt" xmlns="http://www.w3.org/2000/svg" xmlns:xlink="http://www.w3.org/1999/xlink">
 <metadata>
  <rdf:RDF xmlns:cc="http://creativecommons.org/ns#" xmlns:dc="http://purl.org/dc/elements/1.1/" xmlns:rdf="http://www.w3.org/1999/02/22-rdf-syntax-ns#">
   <cc:Work>
    <dc:type rdf:resource="http://purl.org/dc/dcmitype/StillImage"/>
    <dc:date>2021-08-02T11:47:18.825121</dc:date>
    <dc:format>image/svg+xml</dc:format>
    <dc:creator>
     <cc:Agent>
      <dc:title>Matplotlib v3.4.2, https://matplotlib.org/</dc:title>
     </cc:Agent>
    </dc:creator>
   </cc:Work>
  </rdf:RDF>
 </metadata>
 <defs>
  <style type="text/css">*{stroke-linecap:butt;stroke-linejoin:round;}</style>
 </defs>
 <g id="figure_1">
  <g id="patch_1">
   <path d="M 0 345.6 
L 460.8 345.6 
L 460.8 0 
L 0 0 
z
" style="fill:#ffffff;"/>
  </g>
  <g id="axes_1">
   <g id="patch_2">
    <path d="M 50.87 303.64 
L 450 303.64 
L 450 26.88 
L 50.87 26.88 
z
" style="fill:#ffffff;"/>
   </g>
   <g id="patch_3">
    <path clip-path="url(#p14a8d7639f)" d="M 69.012273 303.64 
L 75.609463 303.64 
L 75.609463 40.059048 
L 69.012273 40.059048 
z
" style="fill:#bc1d3b;"/>
   </g>
   <g id="patch_4">
    <path clip-path="url(#p14a8d7639f)" d="M 75.609463 303.64 
L 82.206653 303.64 
L 82.206653 42.643175 
L 75.609463 42.643175 
z
" style="fill:#bc1d3b;"/>
   </g>
   <g id="patch_5">
    <path clip-path="url(#p14a8d7639f)" d="M 82.206653 303.64 
L 88.803843 303.64 
L 88.803843 156.344762 
L 82.206653 156.344762 
z
" style="fill:#bc1d3b;"/>
   </g>
   <g id="patch_6">
    <path clip-path="url(#p14a8d7639f)" d="M 88.803843 303.64 
L 95.401033 303.64 
L 95.401033 175.725714 
L 88.803843 175.725714 
z
" style="fill:#bc1d3b;"/>
   </g>
   <g id="patch_7">
    <path clip-path="url(#p14a8d7639f)" d="M 95.401033 303.64 
L 101.998223 303.64 
L 101.998223 217.071746 
L 95.401033 217.071746 
z
" style="fill:#bc1d3b;"/>
   </g>
   <g id="patch_8">
    <path clip-path="url(#p14a8d7639f)" d="M 101.998223 303.64 
L 108.595413 303.64 
L 108.595413 223.532063 
L 101.998223 223.532063 
z
" style="fill:#bc1d3b;"/>
   </g>
   <g id="patch_9">
    <path clip-path="url(#p14a8d7639f)" d="M 108.595413 303.64 
L 115.192603 303.64 
L 115.192603 254.541587 
L 108.595413 254.541587 
z
" style="fill:#bc1d3b;"/>
   </g>
   <g id="patch_10">
    <path clip-path="url(#p14a8d7639f)" d="M 115.192603 303.64 
L 121.789793 303.64 
L 121.789793 255.833651 
L 115.192603 255.833651 
z
" style="fill:#bc1d3b;"/>
   </g>
   <g id="patch_11">
    <path clip-path="url(#p14a8d7639f)" d="M 121.789793 303.64 
L 128.386983 303.64 
L 128.386983 276.506667 
L 121.789793 276.506667 
z
" style="fill:#bc1d3b;"/>
   </g>
   <g id="patch_12">
    <path clip-path="url(#p14a8d7639f)" d="M 128.386983 303.64 
L 134.984174 303.64 
L 134.984174 285.551111 
L 128.386983 285.551111 
z
" style="fill:#bc1d3b;"/>
   </g>
   <g id="patch_13">
    <path clip-path="url(#p14a8d7639f)" d="M 134.984174 303.64 
L 141.581364 303.64 
L 141.581364 282.966984 
L 134.984174 282.966984 
z
" style="fill:#bc1d3b;"/>
   </g>
   <g id="patch_14">
    <path clip-path="url(#p14a8d7639f)" d="M 141.581364 303.64 
L 148.178554 303.64 
L 148.178554 289.427302 
L 141.581364 289.427302 
z
" style="fill:#bc1d3b;"/>
   </g>
   <g id="patch_15">
    <path clip-path="url(#p14a8d7639f)" d="M 148.178554 303.64 
L 154.775744 303.64 
L 154.775744 285.551111 
L 148.178554 285.551111 
z
" style="fill:#bc1d3b;"/>
   </g>
   <g id="patch_16">
    <path clip-path="url(#p14a8d7639f)" d="M 154.775744 303.64 
L 161.372934 303.64 
L 161.372934 290.719365 
L 154.775744 290.719365 
z
" style="fill:#bc1d3b;"/>
   </g>
   <g id="patch_17">
    <path clip-path="url(#p14a8d7639f)" d="M 161.372934 303.64 
L 167.970124 303.64 
L 167.970124 297.179683 
L 161.372934 297.179683 
z
" style="fill:#bc1d3b;"/>
   </g>
   <g id="patch_18">
    <path clip-path="url(#p14a8d7639f)" d="M 167.970124 303.64 
L 174.567314 303.64 
L 174.567314 289.427302 
L 167.970124 289.427302 
z
" style="fill:#bc1d3b;"/>
   </g>
   <g id="patch_19">
    <path clip-path="url(#p14a8d7639f)" d="M 174.567314 303.64 
L 181.164504 303.64 
L 181.164504 292.011429 
L 174.567314 292.011429 
z
" style="fill:#bc1d3b;"/>
   </g>
   <g id="patch_20">
    <path clip-path="url(#p14a8d7639f)" d="M 181.164504 303.64 
L 187.761694 303.64 
L 187.761694 293.303492 
L 181.164504 293.303492 
z
" style="fill:#bc1d3b;"/>
   </g>
   <g id="patch_21">
    <path clip-path="url(#p14a8d7639f)" d="M 187.761694 303.64 
L 194.358884 303.64 
L 194.358884 297.179683 
L 187.761694 297.179683 
z
" style="fill:#bc1d3b;"/>
   </g>
   <g id="patch_22">
    <path clip-path="url(#p14a8d7639f)" d="M 194.358884 303.64 
L 200.956074 303.64 
L 200.956074 297.179683 
L 194.358884 297.179683 
z
" style="fill:#bc1d3b;"/>
   </g>
   <g id="patch_23">
    <path clip-path="url(#p14a8d7639f)" d="M 200.956074 303.64 
L 207.553264 303.64 
L 207.553264 297.179683 
L 200.956074 297.179683 
z
" style="fill:#bc1d3b;"/>
   </g>
   <g id="patch_24">
    <path clip-path="url(#p14a8d7639f)" d="M 207.553264 303.64 
L 214.150455 303.64 
L 214.150455 297.179683 
L 207.553264 297.179683 
z
" style="fill:#bc1d3b;"/>
   </g>
   <g id="patch_25">
    <path clip-path="url(#p14a8d7639f)" d="M 214.150455 303.64 
L 220.747645 303.64 
L 220.747645 298.471746 
L 214.150455 298.471746 
z
" style="fill:#bc1d3b;"/>
   </g>
   <g id="patch_26">
    <path clip-path="url(#p14a8d7639f)" d="M 220.747645 303.64 
L 227.344835 303.64 
L 227.344835 299.76381 
L 220.747645 299.76381 
z
" style="fill:#bc1d3b;"/>
   </g>
   <g id="patch_27">
    <path clip-path="url(#p14a8d7639f)" d="M 227.344835 303.64 
L 233.942025 303.64 
L 233.942025 303.64 
L 227.344835 303.64 
z
" style="fill:#bc1d3b;"/>
   </g>
   <g id="patch_28">
    <path clip-path="url(#p14a8d7639f)" d="M 233.942025 303.64 
L 240.539215 303.64 
L 240.539215 303.64 
L 233.942025 303.64 
z
" style="fill:#bc1d3b;"/>
   </g>
   <g id="patch_29">
    <path clip-path="url(#p14a8d7639f)" d="M 240.539215 303.64 
L 247.136405 303.64 
L 247.136405 301.055873 
L 240.539215 301.055873 
z
" style="fill:#bc1d3b;"/>
   </g>
   <g id="patch_30">
    <path clip-path="url(#p14a8d7639f)" d="M 247.136405 303.64 
L 253.733595 303.64 
L 253.733595 299.76381 
L 247.136405 299.76381 
z
" style="fill:#bc1d3b;"/>
   </g>
   <g id="patch_31">
    <path clip-path="url(#p14a8d7639f)" d="M 253.733595 303.64 
L 260.330785 303.64 
L 260.330785 301.055873 
L 253.733595 301.055873 
z
" style="fill:#bc1d3b;"/>
   </g>
   <g id="patch_32">
    <path clip-path="url(#p14a8d7639f)" d="M 260.330785 303.64 
L 266.927975 303.64 
L 266.927975 301.055873 
L 260.330785 301.055873 
z
" style="fill:#bc1d3b;"/>
   </g>
   <g id="patch_33">
    <path clip-path="url(#p14a8d7639f)" d="M 266.927975 303.64 
L 273.525165 303.64 
L 273.525165 299.76381 
L 266.927975 299.76381 
z
" style="fill:#bc1d3b;"/>
   </g>
   <g id="patch_34">
    <path clip-path="url(#p14a8d7639f)" d="M 273.525165 303.64 
L 280.122355 303.64 
L 280.122355 302.347937 
L 273.525165 302.347937 
z
" style="fill:#bc1d3b;"/>
   </g>
   <g id="patch_35">
    <path clip-path="url(#p14a8d7639f)" d="M 280.122355 303.64 
L 286.719545 303.64 
L 286.719545 297.179683 
L 280.122355 297.179683 
z
" style="fill:#bc1d3b;"/>
   </g>
   <g id="patch_36">
    <path clip-path="url(#p14a8d7639f)" d="M 286.719545 303.64 
L 293.316736 303.64 
L 293.316736 302.347937 
L 286.719545 302.347937 
z
" style="fill:#bc1d3b;"/>
   </g>
   <g id="patch_37">
    <path clip-path="url(#p14a8d7639f)" d="M 293.316736 303.64 
L 299.913926 303.64 
L 299.913926 303.64 
L 293.316736 303.64 
z
" style="fill:#bc1d3b;"/>
   </g>
   <g id="patch_38">
    <path clip-path="url(#p14a8d7639f)" d="M 299.913926 303.64 
L 306.511116 303.64 
L 306.511116 303.64 
L 299.913926 303.64 
z
" style="fill:#bc1d3b;"/>
   </g>
   <g id="patch_39">
    <path clip-path="url(#p14a8d7639f)" d="M 306.511116 303.64 
L 313.108306 303.64 
L 313.108306 301.055873 
L 306.511116 301.055873 
z
" style="fill:#bc1d3b;"/>
   </g>
   <g id="patch_40">
    <path clip-path="url(#p14a8d7639f)" d="M 313.108306 303.64 
L 319.705496 303.64 
L 319.705496 299.76381 
L 313.108306 299.76381 
z
" style="fill:#bc1d3b;"/>
   </g>
   <g id="patch_41">
    <path clip-path="url(#p14a8d7639f)" d="M 319.705496 303.64 
L 326.302686 303.64 
L 326.302686 303.64 
L 319.705496 303.64 
z
" style="fill:#bc1d3b;"/>
   </g>
   <g id="patch_42">
    <path clip-path="url(#p14a8d7639f)" d="M 326.302686 303.64 
L 332.899876 303.64 
L 332.899876 303.64 
L 326.302686 303.64 
z
" style="fill:#bc1d3b;"/>
   </g>
   <g id="patch_43">
    <path clip-path="url(#p14a8d7639f)" d="M 332.899876 303.64 
L 339.497066 303.64 
L 339.497066 303.64 
L 332.899876 303.64 
z
" style="fill:#bc1d3b;"/>
   </g>
   <g id="patch_44">
    <path clip-path="url(#p14a8d7639f)" d="M 339.497066 303.64 
L 346.094256 303.64 
L 346.094256 303.64 
L 339.497066 303.64 
z
" style="fill:#bc1d3b;"/>
   </g>
   <g id="patch_45">
    <path clip-path="url(#p14a8d7639f)" d="M 346.094256 303.64 
L 352.691446 303.64 
L 352.691446 303.64 
L 346.094256 303.64 
z
" style="fill:#bc1d3b;"/>
   </g>
   <g id="patch_46">
    <path clip-path="url(#p14a8d7639f)" d="M 352.691446 303.64 
L 359.288636 303.64 
L 359.288636 302.347937 
L 352.691446 302.347937 
z
" style="fill:#bc1d3b;"/>
   </g>
   <g id="patch_47">
    <path clip-path="url(#p14a8d7639f)" d="M 359.288636 303.64 
L 365.885826 303.64 
L 365.885826 303.64 
L 359.288636 303.64 
z
" style="fill:#bc1d3b;"/>
   </g>
   <g id="patch_48">
    <path clip-path="url(#p14a8d7639f)" d="M 365.885826 303.64 
L 372.483017 303.64 
L 372.483017 303.64 
L 365.885826 303.64 
z
" style="fill:#bc1d3b;"/>
   </g>
   <g id="patch_49">
    <path clip-path="url(#p14a8d7639f)" d="M 372.483017 303.64 
L 379.080207 303.64 
L 379.080207 303.64 
L 372.483017 303.64 
z
" style="fill:#bc1d3b;"/>
   </g>
   <g id="patch_50">
    <path clip-path="url(#p14a8d7639f)" d="M 379.080207 303.64 
L 385.677397 303.64 
L 385.677397 302.347937 
L 379.080207 302.347937 
z
" style="fill:#bc1d3b;"/>
   </g>
   <g id="patch_51">
    <path clip-path="url(#p14a8d7639f)" d="M 385.677397 303.64 
L 392.274587 303.64 
L 392.274587 301.055873 
L 385.677397 301.055873 
z
" style="fill:#bc1d3b;"/>
   </g>
   <g id="patch_52">
    <path clip-path="url(#p14a8d7639f)" d="M 392.274587 303.64 
L 398.871777 303.64 
L 398.871777 302.347937 
L 392.274587 302.347937 
z
" style="fill:#bc1d3b;"/>
   </g>
   <g id="patch_53">
    <path clip-path="url(#p14a8d7639f)" d="M 398.871777 303.64 
L 405.468967 303.64 
L 405.468967 303.64 
L 398.871777 303.64 
z
" style="fill:#bc1d3b;"/>
   </g>
   <g id="patch_54">
    <path clip-path="url(#p14a8d7639f)" d="M 405.468967 303.64 
L 412.066157 303.64 
L 412.066157 302.347937 
L 405.468967 302.347937 
z
" style="fill:#bc1d3b;"/>
   </g>
   <g id="patch_55">
    <path clip-path="url(#p14a8d7639f)" d="M 412.066157 303.64 
L 418.663347 303.64 
L 418.663347 303.64 
L 412.066157 303.64 
z
" style="fill:#bc1d3b;"/>
   </g>
   <g id="patch_56">
    <path clip-path="url(#p14a8d7639f)" d="M 418.663347 303.64 
L 425.260537 303.64 
L 425.260537 303.64 
L 418.663347 303.64 
z
" style="fill:#bc1d3b;"/>
   </g>
   <g id="patch_57">
    <path clip-path="url(#p14a8d7639f)" d="M 425.260537 303.64 
L 431.857727 303.64 
L 431.857727 301.055873 
L 425.260537 301.055873 
z
" style="fill:#bc1d3b;"/>
   </g>
   <g id="matplotlib.axis_1">
    <g id="xtick_1">
     <g id="line2d_1">
      <defs>
       <path d="M 0 0 
L 0 3.5 
" id="m32a3b0b7a1" style="stroke:#000000;stroke-width:0.8;"/>
      </defs>
      <g>
       <use style="stroke:#000000;stroke-width:0.8;" x="69.012273" xlink:href="#m32a3b0b7a1" y="303.64"/>
      </g>
     </g>
     <g id="text_1">
      <!-- 0 -->
      <g transform="translate(65.831023 318.238437)scale(0.1 -0.1)">
       <defs>
        <path d="M 2034 4250 
Q 1547 4250 1301 3770 
Q 1056 3291 1056 2328 
Q 1056 1369 1301 889 
Q 1547 409 2034 409 
Q 2525 409 2770 889 
Q 3016 1369 3016 2328 
Q 3016 3291 2770 3770 
Q 2525 4250 2034 4250 
z
M 2034 4750 
Q 2819 4750 3233 4129 
Q 3647 3509 3647 2328 
Q 3647 1150 3233 529 
Q 2819 -91 2034 -91 
Q 1250 -91 836 529 
Q 422 1150 422 2328 
Q 422 3509 836 4129 
Q 1250 4750 2034 4750 
z
" id="DejaVuSans-30" transform="scale(0.015625)"/>
       </defs>
       <use xlink:href="#DejaVuSans-30"/>
      </g>
     </g>
    </g>
    <g id="xtick_2">
     <g id="line2d_2">
      <g>
       <use style="stroke:#000000;stroke-width:0.8;" x="119.129048" xlink:href="#m32a3b0b7a1" y="303.64"/>
      </g>
     </g>
     <g id="text_2">
      <!-- 50 -->
      <g transform="translate(112.766548 318.238437)scale(0.1 -0.1)">
       <defs>
        <path d="M 691 4666 
L 3169 4666 
L 3169 4134 
L 1269 4134 
L 1269 2991 
Q 1406 3038 1543 3061 
Q 1681 3084 1819 3084 
Q 2600 3084 3056 2656 
Q 3513 2228 3513 1497 
Q 3513 744 3044 326 
Q 2575 -91 1722 -91 
Q 1428 -91 1123 -41 
Q 819 9 494 109 
L 494 744 
Q 775 591 1075 516 
Q 1375 441 1709 441 
Q 2250 441 2565 725 
Q 2881 1009 2881 1497 
Q 2881 1984 2565 2268 
Q 2250 2553 1709 2553 
Q 1456 2553 1204 2497 
Q 953 2441 691 2322 
L 691 4666 
z
" id="DejaVuSans-35" transform="scale(0.015625)"/>
       </defs>
       <use xlink:href="#DejaVuSans-35"/>
       <use x="63.623047" xlink:href="#DejaVuSans-30"/>
      </g>
     </g>
    </g>
    <g id="xtick_3">
     <g id="line2d_3">
      <g>
       <use style="stroke:#000000;stroke-width:0.8;" x="169.245824" xlink:href="#m32a3b0b7a1" y="303.64"/>
      </g>
     </g>
     <g id="text_3">
      <!-- 100 -->
      <g transform="translate(159.702074 318.238437)scale(0.1 -0.1)">
       <defs>
        <path d="M 794 531 
L 1825 531 
L 1825 4091 
L 703 3866 
L 703 4441 
L 1819 4666 
L 2450 4666 
L 2450 531 
L 3481 531 
L 3481 0 
L 794 0 
L 794 531 
z
" id="DejaVuSans-31" transform="scale(0.015625)"/>
       </defs>
       <use xlink:href="#DejaVuSans-31"/>
       <use x="63.623047" xlink:href="#DejaVuSans-30"/>
       <use x="127.246094" xlink:href="#DejaVuSans-30"/>
      </g>
     </g>
    </g>
    <g id="xtick_4">
     <g id="line2d_4">
      <g>
       <use style="stroke:#000000;stroke-width:0.8;" x="219.362599" xlink:href="#m32a3b0b7a1" y="303.64"/>
      </g>
     </g>
     <g id="text_4">
      <!-- 150 -->
      <g transform="translate(209.818849 318.238437)scale(0.1 -0.1)">
       <use xlink:href="#DejaVuSans-31"/>
       <use x="63.623047" xlink:href="#DejaVuSans-35"/>
       <use x="127.246094" xlink:href="#DejaVuSans-30"/>
      </g>
     </g>
    </g>
    <g id="xtick_5">
     <g id="line2d_5">
      <g>
       <use style="stroke:#000000;stroke-width:0.8;" x="269.479375" xlink:href="#m32a3b0b7a1" y="303.64"/>
      </g>
     </g>
     <g id="text_5">
      <!-- 200 -->
      <g transform="translate(259.935625 318.238437)scale(0.1 -0.1)">
       <defs>
        <path d="M 1228 531 
L 3431 531 
L 3431 0 
L 469 0 
L 469 531 
Q 828 903 1448 1529 
Q 2069 2156 2228 2338 
Q 2531 2678 2651 2914 
Q 2772 3150 2772 3378 
Q 2772 3750 2511 3984 
Q 2250 4219 1831 4219 
Q 1534 4219 1204 4116 
Q 875 4013 500 3803 
L 500 4441 
Q 881 4594 1212 4672 
Q 1544 4750 1819 4750 
Q 2544 4750 2975 4387 
Q 3406 4025 3406 3419 
Q 3406 3131 3298 2873 
Q 3191 2616 2906 2266 
Q 2828 2175 2409 1742 
Q 1991 1309 1228 531 
z
" id="DejaVuSans-32" transform="scale(0.015625)"/>
       </defs>
       <use xlink:href="#DejaVuSans-32"/>
       <use x="63.623047" xlink:href="#DejaVuSans-30"/>
       <use x="127.246094" xlink:href="#DejaVuSans-30"/>
      </g>
     </g>
    </g>
    <g id="xtick_6">
     <g id="line2d_6">
      <g>
       <use style="stroke:#000000;stroke-width:0.8;" x="319.59615" xlink:href="#m32a3b0b7a1" y="303.64"/>
      </g>
     </g>
     <g id="text_6">
      <!-- 250 -->
      <g transform="translate(310.0524 318.238437)scale(0.1 -0.1)">
       <use xlink:href="#DejaVuSans-32"/>
       <use x="63.623047" xlink:href="#DejaVuSans-35"/>
       <use x="127.246094" xlink:href="#DejaVuSans-30"/>
      </g>
     </g>
    </g>
    <g id="xtick_7">
     <g id="line2d_7">
      <g>
       <use style="stroke:#000000;stroke-width:0.8;" x="369.712926" xlink:href="#m32a3b0b7a1" y="303.64"/>
      </g>
     </g>
     <g id="text_7">
      <!-- 300 -->
      <g transform="translate(360.169176 318.238437)scale(0.1 -0.1)">
       <defs>
        <path d="M 2597 2516 
Q 3050 2419 3304 2112 
Q 3559 1806 3559 1356 
Q 3559 666 3084 287 
Q 2609 -91 1734 -91 
Q 1441 -91 1130 -33 
Q 819 25 488 141 
L 488 750 
Q 750 597 1062 519 
Q 1375 441 1716 441 
Q 2309 441 2620 675 
Q 2931 909 2931 1356 
Q 2931 1769 2642 2001 
Q 2353 2234 1838 2234 
L 1294 2234 
L 1294 2753 
L 1863 2753 
Q 2328 2753 2575 2939 
Q 2822 3125 2822 3475 
Q 2822 3834 2567 4026 
Q 2313 4219 1838 4219 
Q 1578 4219 1281 4162 
Q 984 4106 628 3988 
L 628 4550 
Q 988 4650 1302 4700 
Q 1616 4750 1894 4750 
Q 2613 4750 3031 4423 
Q 3450 4097 3450 3541 
Q 3450 3153 3228 2886 
Q 3006 2619 2597 2516 
z
" id="DejaVuSans-33" transform="scale(0.015625)"/>
       </defs>
       <use xlink:href="#DejaVuSans-33"/>
       <use x="63.623047" xlink:href="#DejaVuSans-30"/>
       <use x="127.246094" xlink:href="#DejaVuSans-30"/>
      </g>
     </g>
    </g>
    <g id="xtick_8">
     <g id="line2d_8">
      <g>
       <use style="stroke:#000000;stroke-width:0.8;" x="419.829701" xlink:href="#m32a3b0b7a1" y="303.64"/>
      </g>
     </g>
     <g id="text_8">
      <!-- 350 -->
      <g transform="translate(410.285951 318.238437)scale(0.1 -0.1)">
       <use xlink:href="#DejaVuSans-33"/>
       <use x="63.623047" xlink:href="#DejaVuSans-35"/>
       <use x="127.246094" xlink:href="#DejaVuSans-30"/>
      </g>
     </g>
    </g>
    <g id="text_9">
     <!-- #requests -->
     <g transform="translate(224.636562 331.916562)scale(0.1 -0.1)">
      <defs>
       <path d="M 3272 2816 
L 2363 2816 
L 2100 1772 
L 3016 1772 
L 3272 2816 
z
M 2803 4594 
L 2478 3297 
L 3391 3297 
L 3719 4594 
L 4219 4594 
L 3897 3297 
L 4872 3297 
L 4872 2816 
L 3775 2816 
L 3519 1772 
L 4513 1772 
L 4513 1294 
L 3397 1294 
L 3072 0 
L 2572 0 
L 2894 1294 
L 1978 1294 
L 1656 0 
L 1153 0 
L 1478 1294 
L 494 1294 
L 494 1772 
L 1594 1772 
L 1856 2816 
L 850 2816 
L 850 3297 
L 1978 3297 
L 2297 4594 
L 2803 4594 
z
" id="DejaVuSans-23" transform="scale(0.015625)"/>
       <path d="M 2631 2963 
Q 2534 3019 2420 3045 
Q 2306 3072 2169 3072 
Q 1681 3072 1420 2755 
Q 1159 2438 1159 1844 
L 1159 0 
L 581 0 
L 581 3500 
L 1159 3500 
L 1159 2956 
Q 1341 3275 1631 3429 
Q 1922 3584 2338 3584 
Q 2397 3584 2469 3576 
Q 2541 3569 2628 3553 
L 2631 2963 
z
" id="DejaVuSans-72" transform="scale(0.015625)"/>
       <path d="M 3597 1894 
L 3597 1613 
L 953 1613 
Q 991 1019 1311 708 
Q 1631 397 2203 397 
Q 2534 397 2845 478 
Q 3156 559 3463 722 
L 3463 178 
Q 3153 47 2828 -22 
Q 2503 -91 2169 -91 
Q 1331 -91 842 396 
Q 353 884 353 1716 
Q 353 2575 817 3079 
Q 1281 3584 2069 3584 
Q 2775 3584 3186 3129 
Q 3597 2675 3597 1894 
z
M 3022 2063 
Q 3016 2534 2758 2815 
Q 2500 3097 2075 3097 
Q 1594 3097 1305 2825 
Q 1016 2553 972 2059 
L 3022 2063 
z
" id="DejaVuSans-65" transform="scale(0.015625)"/>
       <path d="M 947 1747 
Q 947 1113 1208 752 
Q 1469 391 1925 391 
Q 2381 391 2643 752 
Q 2906 1113 2906 1747 
Q 2906 2381 2643 2742 
Q 2381 3103 1925 3103 
Q 1469 3103 1208 2742 
Q 947 2381 947 1747 
z
M 2906 525 
Q 2725 213 2448 61 
Q 2172 -91 1784 -91 
Q 1150 -91 751 415 
Q 353 922 353 1747 
Q 353 2572 751 3078 
Q 1150 3584 1784 3584 
Q 2172 3584 2448 3432 
Q 2725 3281 2906 2969 
L 2906 3500 
L 3481 3500 
L 3481 -1331 
L 2906 -1331 
L 2906 525 
z
" id="DejaVuSans-71" transform="scale(0.015625)"/>
       <path d="M 544 1381 
L 544 3500 
L 1119 3500 
L 1119 1403 
Q 1119 906 1312 657 
Q 1506 409 1894 409 
Q 2359 409 2629 706 
Q 2900 1003 2900 1516 
L 2900 3500 
L 3475 3500 
L 3475 0 
L 2900 0 
L 2900 538 
Q 2691 219 2414 64 
Q 2138 -91 1772 -91 
Q 1169 -91 856 284 
Q 544 659 544 1381 
z
M 1991 3584 
L 1991 3584 
z
" id="DejaVuSans-75" transform="scale(0.015625)"/>
       <path d="M 2834 3397 
L 2834 2853 
Q 2591 2978 2328 3040 
Q 2066 3103 1784 3103 
Q 1356 3103 1142 2972 
Q 928 2841 928 2578 
Q 928 2378 1081 2264 
Q 1234 2150 1697 2047 
L 1894 2003 
Q 2506 1872 2764 1633 
Q 3022 1394 3022 966 
Q 3022 478 2636 193 
Q 2250 -91 1575 -91 
Q 1294 -91 989 -36 
Q 684 19 347 128 
L 347 722 
Q 666 556 975 473 
Q 1284 391 1588 391 
Q 1994 391 2212 530 
Q 2431 669 2431 922 
Q 2431 1156 2273 1281 
Q 2116 1406 1581 1522 
L 1381 1569 
Q 847 1681 609 1914 
Q 372 2147 372 2553 
Q 372 3047 722 3315 
Q 1072 3584 1716 3584 
Q 2034 3584 2315 3537 
Q 2597 3491 2834 3397 
z
" id="DejaVuSans-73" transform="scale(0.015625)"/>
       <path d="M 1172 4494 
L 1172 3500 
L 2356 3500 
L 2356 3053 
L 1172 3053 
L 1172 1153 
Q 1172 725 1289 603 
Q 1406 481 1766 481 
L 2356 481 
L 2356 0 
L 1766 0 
Q 1100 0 847 248 
Q 594 497 594 1153 
L 594 3053 
L 172 3053 
L 172 3500 
L 594 3500 
L 594 4494 
L 1172 4494 
z
" id="DejaVuSans-74" transform="scale(0.015625)"/>
      </defs>
      <use xlink:href="#DejaVuSans-23"/>
      <use x="83.789062" xlink:href="#DejaVuSans-72"/>
      <use x="122.652344" xlink:href="#DejaVuSans-65"/>
      <use x="184.175781" xlink:href="#DejaVuSans-71"/>
      <use x="247.652344" xlink:href="#DejaVuSans-75"/>
      <use x="311.03125" xlink:href="#DejaVuSans-65"/>
      <use x="372.554688" xlink:href="#DejaVuSans-73"/>
      <use x="424.654297" xlink:href="#DejaVuSans-74"/>
      <use x="463.863281" xlink:href="#DejaVuSans-73"/>
     </g>
    </g>
   </g>
   <g id="matplotlib.axis_2">
    <g id="ytick_1">
     <g id="line2d_9">
      <defs>
       <path d="M 0 0 
L -3.5 0 
" id="m31c9d9dae5" style="stroke:#000000;stroke-width:0.8;"/>
      </defs>
      <g>
       <use style="stroke:#000000;stroke-width:0.8;" x="50.87" xlink:href="#m31c9d9dae5" y="303.64"/>
      </g>
     </g>
     <g id="text_10">
      <!-- 0 -->
      <g transform="translate(37.5075 307.439219)scale(0.1 -0.1)">
       <use xlink:href="#DejaVuSans-30"/>
      </g>
     </g>
    </g>
    <g id="ytick_2">
     <g id="line2d_10">
      <g>
       <use style="stroke:#000000;stroke-width:0.8;" x="50.87" xlink:href="#m31c9d9dae5" y="271.338413"/>
      </g>
     </g>
     <g id="text_11">
      <!-- 25 -->
      <g transform="translate(31.145 275.137631)scale(0.1 -0.1)">
       <use xlink:href="#DejaVuSans-32"/>
       <use x="63.623047" xlink:href="#DejaVuSans-35"/>
      </g>
     </g>
    </g>
    <g id="ytick_3">
     <g id="line2d_11">
      <g>
       <use style="stroke:#000000;stroke-width:0.8;" x="50.87" xlink:href="#m31c9d9dae5" y="239.036825"/>
      </g>
     </g>
     <g id="text_12">
      <!-- 50 -->
      <g transform="translate(31.145 242.836044)scale(0.1 -0.1)">
       <use xlink:href="#DejaVuSans-35"/>
       <use x="63.623047" xlink:href="#DejaVuSans-30"/>
      </g>
     </g>
    </g>
    <g id="ytick_4">
     <g id="line2d_12">
      <g>
       <use style="stroke:#000000;stroke-width:0.8;" x="50.87" xlink:href="#m31c9d9dae5" y="206.735238"/>
      </g>
     </g>
     <g id="text_13">
      <!-- 75 -->
      <g transform="translate(31.145 210.534457)scale(0.1 -0.1)">
       <defs>
        <path d="M 525 4666 
L 3525 4666 
L 3525 4397 
L 1831 0 
L 1172 0 
L 2766 4134 
L 525 4134 
L 525 4666 
z
" id="DejaVuSans-37" transform="scale(0.015625)"/>
       </defs>
       <use xlink:href="#DejaVuSans-37"/>
       <use x="63.623047" xlink:href="#DejaVuSans-35"/>
      </g>
     </g>
    </g>
    <g id="ytick_5">
     <g id="line2d_13">
      <g>
       <use style="stroke:#000000;stroke-width:0.8;" x="50.87" xlink:href="#m31c9d9dae5" y="174.433651"/>
      </g>
     </g>
     <g id="text_14">
      <!-- 100 -->
      <g transform="translate(24.7825 178.23287)scale(0.1 -0.1)">
       <use xlink:href="#DejaVuSans-31"/>
       <use x="63.623047" xlink:href="#DejaVuSans-30"/>
       <use x="127.246094" xlink:href="#DejaVuSans-30"/>
      </g>
     </g>
    </g>
    <g id="ytick_6">
     <g id="line2d_14">
      <g>
       <use style="stroke:#000000;stroke-width:0.8;" x="50.87" xlink:href="#m31c9d9dae5" y="142.132063"/>
      </g>
     </g>
     <g id="text_15">
      <!-- 125 -->
      <g transform="translate(24.7825 145.931282)scale(0.1 -0.1)">
       <use xlink:href="#DejaVuSans-31"/>
       <use x="63.623047" xlink:href="#DejaVuSans-32"/>
       <use x="127.246094" xlink:href="#DejaVuSans-35"/>
      </g>
     </g>
    </g>
    <g id="ytick_7">
     <g id="line2d_15">
      <g>
       <use style="stroke:#000000;stroke-width:0.8;" x="50.87" xlink:href="#m31c9d9dae5" y="109.830476"/>
      </g>
     </g>
     <g id="text_16">
      <!-- 150 -->
      <g transform="translate(24.7825 113.629695)scale(0.1 -0.1)">
       <use xlink:href="#DejaVuSans-31"/>
       <use x="63.623047" xlink:href="#DejaVuSans-35"/>
       <use x="127.246094" xlink:href="#DejaVuSans-30"/>
      </g>
     </g>
    </g>
    <g id="ytick_8">
     <g id="line2d_16">
      <g>
       <use style="stroke:#000000;stroke-width:0.8;" x="50.87" xlink:href="#m31c9d9dae5" y="77.528889"/>
      </g>
     </g>
     <g id="text_17">
      <!-- 175 -->
      <g transform="translate(24.7825 81.328108)scale(0.1 -0.1)">
       <use xlink:href="#DejaVuSans-31"/>
       <use x="63.623047" xlink:href="#DejaVuSans-37"/>
       <use x="127.246094" xlink:href="#DejaVuSans-35"/>
      </g>
     </g>
    </g>
    <g id="ytick_9">
     <g id="line2d_17">
      <g>
       <use style="stroke:#000000;stroke-width:0.8;" x="50.87" xlink:href="#m31c9d9dae5" y="45.227302"/>
      </g>
     </g>
     <g id="text_18">
      <!-- 200 -->
      <g transform="translate(24.7825 49.02652)scale(0.1 -0.1)">
       <use xlink:href="#DejaVuSans-32"/>
       <use x="63.623047" xlink:href="#DejaVuSans-30"/>
       <use x="127.246094" xlink:href="#DejaVuSans-30"/>
      </g>
     </g>
    </g>
    <g id="text_19">
     <!-- #apps -->
     <g transform="translate(18.702813 181.467031)rotate(-90)scale(0.1 -0.1)">
      <defs>
       <path d="M 2194 1759 
Q 1497 1759 1228 1600 
Q 959 1441 959 1056 
Q 959 750 1161 570 
Q 1363 391 1709 391 
Q 2188 391 2477 730 
Q 2766 1069 2766 1631 
L 2766 1759 
L 2194 1759 
z
M 3341 1997 
L 3341 0 
L 2766 0 
L 2766 531 
Q 2569 213 2275 61 
Q 1981 -91 1556 -91 
Q 1019 -91 701 211 
Q 384 513 384 1019 
Q 384 1609 779 1909 
Q 1175 2209 1959 2209 
L 2766 2209 
L 2766 2266 
Q 2766 2663 2505 2880 
Q 2244 3097 1772 3097 
Q 1472 3097 1187 3025 
Q 903 2953 641 2809 
L 641 3341 
Q 956 3463 1253 3523 
Q 1550 3584 1831 3584 
Q 2591 3584 2966 3190 
Q 3341 2797 3341 1997 
z
" id="DejaVuSans-61" transform="scale(0.015625)"/>
       <path d="M 1159 525 
L 1159 -1331 
L 581 -1331 
L 581 3500 
L 1159 3500 
L 1159 2969 
Q 1341 3281 1617 3432 
Q 1894 3584 2278 3584 
Q 2916 3584 3314 3078 
Q 3713 2572 3713 1747 
Q 3713 922 3314 415 
Q 2916 -91 2278 -91 
Q 1894 -91 1617 61 
Q 1341 213 1159 525 
z
M 3116 1747 
Q 3116 2381 2855 2742 
Q 2594 3103 2138 3103 
Q 1681 3103 1420 2742 
Q 1159 2381 1159 1747 
Q 1159 1113 1420 752 
Q 1681 391 2138 391 
Q 2594 391 2855 752 
Q 3116 1113 3116 1747 
z
" id="DejaVuSans-70" transform="scale(0.015625)"/>
      </defs>
      <use xlink:href="#DejaVuSans-23"/>
      <use x="83.789062" xlink:href="#DejaVuSans-61"/>
      <use x="145.068359" xlink:href="#DejaVuSans-70"/>
      <use x="208.544922" xlink:href="#DejaVuSans-70"/>
      <use x="272.021484" xlink:href="#DejaVuSans-73"/>
     </g>
    </g>
   </g>
   <g id="patch_58">
    <path d="M 50.87 303.64 
L 50.87 26.88 
" style="fill:none;stroke:#000000;stroke-linecap:square;stroke-linejoin:miter;stroke-width:0.8;"/>
   </g>
   <g id="patch_59">
    <path d="M 450 303.64 
L 450 26.88 
" style="fill:none;stroke:#000000;stroke-linecap:square;stroke-linejoin:miter;stroke-width:0.8;"/>
   </g>
   <g id="patch_60">
    <path d="M 50.87 303.64 
L 450 303.64 
" style="fill:none;stroke:#000000;stroke-linecap:square;stroke-linejoin:miter;stroke-width:0.8;"/>
   </g>
   <g id="patch_61">
    <path d="M 50.87 26.88 
L 450 26.88 
" style="fill:none;stroke:#000000;stroke-linecap:square;stroke-linejoin:miter;stroke-width:0.8;"/>
   </g>
   <g id="text_20">
    <!-- #requests per app -->
    <g transform="translate(194.400625 20.88)scale(0.12 -0.12)">
     <defs>
      <path id="DejaVuSans-20" transform="scale(0.015625)"/>
     </defs>
     <use xlink:href="#DejaVuSans-23"/>
     <use x="83.789062" xlink:href="#DejaVuSans-72"/>
     <use x="122.652344" xlink:href="#DejaVuSans-65"/>
     <use x="184.175781" xlink:href="#DejaVuSans-71"/>
     <use x="247.652344" xlink:href="#DejaVuSans-75"/>
     <use x="311.03125" xlink:href="#DejaVuSans-65"/>
     <use x="372.554688" xlink:href="#DejaVuSans-73"/>
     <use x="424.654297" xlink:href="#DejaVuSans-74"/>
     <use x="463.863281" xlink:href="#DejaVuSans-73"/>
     <use x="515.962891" xlink:href="#DejaVuSans-20"/>
     <use x="547.75" xlink:href="#DejaVuSans-70"/>
     <use x="611.226562" xlink:href="#DejaVuSans-65"/>
     <use x="672.75" xlink:href="#DejaVuSans-72"/>
     <use x="713.863281" xlink:href="#DejaVuSans-20"/>
     <use x="745.650391" xlink:href="#DejaVuSans-61"/>
     <use x="806.929688" xlink:href="#DejaVuSans-70"/>
     <use x="870.40625" xlink:href="#DejaVuSans-70"/>
    </g>
   </g>
  </g>
 </g>
 <defs>
  <clipPath id="p14a8d7639f">
   <rect height="276.76" width="399.13" x="50.87" y="26.88"/>
  </clipPath>
 </defs>
</svg>
