<?xml version="1.0" encoding="utf-8" standalone="no"?>
<!DOCTYPE svg PUBLIC "-//W3C//DTD SVG 1.1//EN"
  "http://www.w3.org/Graphics/SVG/1.1/DTD/svg11.dtd">
<svg height="345.6pt" version="1.1" viewBox="0 0 460.8 345.6" width="460.8pt" xmlns="http://www.w3.org/2000/svg" xmlns:xlink="http://www.w3.org/1999/xlink">
 <metadata>
  <rdf:RDF xmlns:cc="http://creativecommons.org/ns#" xmlns:dc="http://purl.org/dc/elements/1.1/" xmlns:rdf="http://www.w3.org/1999/02/22-rdf-syntax-ns#">
   <cc:Work>
    <dc:type rdf:resource="http://purl.org/dc/dcmitype/StillImage"/>
    <dc:date>2021-07-13T13:40:41.080593</dc:date>
    <dc:format>image/svg+xml</dc:format>
    <dc:creator>
     <cc:Agent>
      <dc:title>Matplotlib v3.4.2, https://matplotlib.org/</dc:title>
     </cc:Agent>
    </dc:creator>
   </cc:Work>
  </rdf:RDF>
 </metadata>
 <defs>
  <style type="text/css">*{stroke-linecap:butt;stroke-linejoin:round;}</style>
 </defs>
 <g id="figure_1">
  <g id="patch_1">
   <path d="M 0 345.6 
L 460.8 345.6 
L 460.8 0 
L 0 0 
z
" style="fill:#ffffff;"/>
  </g>
  <g id="axes_1">
   <g id="patch_2">
    <path d="M 50.87 243.61 
L 450 243.61 
L 450 26.88 
L 50.87 26.88 
z
" style="fill:#ffffff;"/>
   </g>
   <g id="patch_3">
    <path clip-path="url(#pc481e5797a)" d="M 69.012273 243.61 
L 81.743692 243.61 
L 81.743692 37.200476 
L 69.012273 37.200476 
z
" style="fill:#1f77b4;"/>
   </g>
   <g id="patch_4">
    <path clip-path="url(#pc481e5797a)" d="M 84.926547 243.61 
L 97.657967 243.61 
L 97.657967 117.299694 
L 84.926547 117.299694 
z
" style="fill:#1f77b4;"/>
   </g>
   <g id="patch_5">
    <path clip-path="url(#pc481e5797a)" d="M 100.840821 243.61 
L 113.572241 243.61 
L 113.572241 199.863504 
L 100.840821 199.863504 
z
" style="fill:#1f77b4;"/>
   </g>
   <g id="patch_6">
    <path clip-path="url(#pc481e5797a)" d="M 116.755096 243.61 
L 129.486515 243.61 
L 129.486515 204.176539 
L 116.755096 204.176539 
z
" style="fill:#1f77b4;"/>
   </g>
   <g id="patch_7">
    <path clip-path="url(#pc481e5797a)" d="M 132.66937 243.61 
L 145.400789 243.61 
L 145.400789 208.489574 
L 132.66937 208.489574 
z
" style="fill:#1f77b4;"/>
   </g>
   <g id="patch_8">
    <path clip-path="url(#pc481e5797a)" d="M 148.583644 243.61 
L 161.315064 243.61 
L 161.315064 222.3529 
L 148.583644 222.3529 
z
" style="fill:#1f77b4;"/>
   </g>
   <g id="patch_9">
    <path clip-path="url(#pc481e5797a)" d="M 164.497919 243.61 
L 177.229338 243.61 
L 177.229338 226.049787 
L 164.497919 226.049787 
z
" style="fill:#1f77b4;"/>
   </g>
   <g id="patch_10">
    <path clip-path="url(#pc481e5797a)" d="M 180.412193 243.61 
L 193.143612 243.61 
L 193.143612 227.282082 
L 180.412193 227.282082 
z
" style="fill:#1f77b4;"/>
   </g>
   <g id="patch_11">
    <path clip-path="url(#pc481e5797a)" d="M 196.326467 243.61 
L 209.057887 243.61 
L 209.057887 228.206304 
L 196.326467 228.206304 
z
" style="fill:#1f77b4;"/>
   </g>
   <g id="patch_12">
    <path clip-path="url(#pc481e5797a)" d="M 212.240742 243.61 
L 224.972161 243.61 
L 224.972161 229.746674 
L 212.240742 229.746674 
z
" style="fill:#1f77b4;"/>
   </g>
   <g id="patch_13">
    <path clip-path="url(#pc481e5797a)" d="M 228.155016 243.61 
L 240.886435 243.61 
L 240.886435 233.135487 
L 228.155016 233.135487 
z
" style="fill:#1f77b4;"/>
   </g>
   <g id="patch_14">
    <path clip-path="url(#pc481e5797a)" d="M 244.06929 243.61 
L 256.80071 243.61 
L 256.80071 233.751635 
L 244.06929 233.751635 
z
" style="fill:#1f77b4;"/>
   </g>
   <g id="patch_15">
    <path clip-path="url(#pc481e5797a)" d="M 259.983565 243.61 
L 272.714984 243.61 
L 272.714984 234.675856 
L 259.983565 234.675856 
z
" style="fill:#1f77b4;"/>
   </g>
   <g id="patch_16">
    <path clip-path="url(#pc481e5797a)" d="M 275.897839 243.61 
L 288.629258 243.61 
L 288.629258 234.98393 
L 275.897839 234.98393 
z
" style="fill:#1f77b4;"/>
   </g>
   <g id="patch_17">
    <path clip-path="url(#pc481e5797a)" d="M 291.812113 243.61 
L 304.543533 243.61 
L 304.543533 234.98393 
L 291.812113 234.98393 
z
" style="fill:#1f77b4;"/>
   </g>
   <g id="patch_18">
    <path clip-path="url(#pc481e5797a)" d="M 307.726388 243.61 
L 320.457807 243.61 
L 320.457807 235.292004 
L 307.726388 235.292004 
z
" style="fill:#1f77b4;"/>
   </g>
   <g id="patch_19">
    <path clip-path="url(#pc481e5797a)" d="M 323.640662 243.61 
L 336.372081 243.61 
L 336.372081 236.216226 
L 323.640662 236.216226 
z
" style="fill:#1f77b4;"/>
   </g>
   <g id="patch_20">
    <path clip-path="url(#pc481e5797a)" d="M 339.554936 243.61 
L 352.286356 243.61 
L 352.286356 236.832374 
L 339.554936 236.832374 
z
" style="fill:#1f77b4;"/>
   </g>
   <g id="patch_21">
    <path clip-path="url(#pc481e5797a)" d="M 355.469211 243.61 
L 368.20063 243.61 
L 368.20063 238.06467 
L 355.469211 238.06467 
z
" style="fill:#1f77b4;"/>
   </g>
   <g id="patch_22">
    <path clip-path="url(#pc481e5797a)" d="M 371.383485 243.61 
L 384.114904 243.61 
L 384.114904 238.06467 
L 371.383485 238.06467 
z
" style="fill:#1f77b4;"/>
   </g>
   <g id="patch_23">
    <path clip-path="url(#pc481e5797a)" d="M 387.297759 243.61 
L 400.029179 243.61 
L 400.029179 238.06467 
L 387.297759 238.06467 
z
" style="fill:#1f77b4;"/>
   </g>
   <g id="patch_24">
    <path clip-path="url(#pc481e5797a)" d="M 403.212033 243.61 
L 415.943453 243.61 
L 415.943453 238.680817 
L 403.212033 238.680817 
z
" style="fill:#1f77b4;"/>
   </g>
   <g id="patch_25">
    <path clip-path="url(#pc481e5797a)" d="M 419.126308 243.61 
L 431.857727 243.61 
L 431.857727 238.680817 
L 419.126308 238.680817 
z
" style="fill:#1f77b4;"/>
   </g>
   <g id="matplotlib.axis_1">
    <g id="xtick_1">
     <g id="line2d_1">
      <defs>
       <path d="M 0 0 
L 0 3.5 
" id="m7bcb1049ed" style="stroke:#000000;stroke-width:0.8;"/>
      </defs>
      <g>
       <use style="stroke:#000000;stroke-width:0.8;" x="75.377982" xlink:href="#m7bcb1049ed" y="243.61"/>
      </g>
     </g>
     <g id="text_1">
      <!-- Google -->
      <g transform="translate(78.137357 285.875625)rotate(-90)scale(0.1 -0.1)">
       <defs>
        <path d="M 3809 666 
L 3809 1919 
L 2778 1919 
L 2778 2438 
L 4434 2438 
L 4434 434 
Q 4069 175 3628 42 
Q 3188 -91 2688 -91 
Q 1594 -91 976 548 
Q 359 1188 359 2328 
Q 359 3472 976 4111 
Q 1594 4750 2688 4750 
Q 3144 4750 3555 4637 
Q 3966 4525 4313 4306 
L 4313 3634 
Q 3963 3931 3569 4081 
Q 3175 4231 2741 4231 
Q 1884 4231 1454 3753 
Q 1025 3275 1025 2328 
Q 1025 1384 1454 906 
Q 1884 428 2741 428 
Q 3075 428 3337 486 
Q 3600 544 3809 666 
z
" id="DejaVuSans-47" transform="scale(0.015625)"/>
        <path d="M 1959 3097 
Q 1497 3097 1228 2736 
Q 959 2375 959 1747 
Q 959 1119 1226 758 
Q 1494 397 1959 397 
Q 2419 397 2687 759 
Q 2956 1122 2956 1747 
Q 2956 2369 2687 2733 
Q 2419 3097 1959 3097 
z
M 1959 3584 
Q 2709 3584 3137 3096 
Q 3566 2609 3566 1747 
Q 3566 888 3137 398 
Q 2709 -91 1959 -91 
Q 1206 -91 779 398 
Q 353 888 353 1747 
Q 353 2609 779 3096 
Q 1206 3584 1959 3584 
z
" id="DejaVuSans-6f" transform="scale(0.015625)"/>
        <path d="M 2906 1791 
Q 2906 2416 2648 2759 
Q 2391 3103 1925 3103 
Q 1463 3103 1205 2759 
Q 947 2416 947 1791 
Q 947 1169 1205 825 
Q 1463 481 1925 481 
Q 2391 481 2648 825 
Q 2906 1169 2906 1791 
z
M 3481 434 
Q 3481 -459 3084 -895 
Q 2688 -1331 1869 -1331 
Q 1566 -1331 1297 -1286 
Q 1028 -1241 775 -1147 
L 775 -588 
Q 1028 -725 1275 -790 
Q 1522 -856 1778 -856 
Q 2344 -856 2625 -561 
Q 2906 -266 2906 331 
L 2906 616 
Q 2728 306 2450 153 
Q 2172 0 1784 0 
Q 1141 0 747 490 
Q 353 981 353 1791 
Q 353 2603 747 3093 
Q 1141 3584 1784 3584 
Q 2172 3584 2450 3431 
Q 2728 3278 2906 2969 
L 2906 3500 
L 3481 3500 
L 3481 434 
z
" id="DejaVuSans-67" transform="scale(0.015625)"/>
        <path d="M 603 4863 
L 1178 4863 
L 1178 0 
L 603 0 
L 603 4863 
z
" id="DejaVuSans-6c" transform="scale(0.015625)"/>
        <path d="M 3597 1894 
L 3597 1613 
L 953 1613 
Q 991 1019 1311 708 
Q 1631 397 2203 397 
Q 2534 397 2845 478 
Q 3156 559 3463 722 
L 3463 178 
Q 3153 47 2828 -22 
Q 2503 -91 2169 -91 
Q 1331 -91 842 396 
Q 353 884 353 1716 
Q 353 2575 817 3079 
Q 1281 3584 2069 3584 
Q 2775 3584 3186 3129 
Q 3597 2675 3597 1894 
z
M 3022 2063 
Q 3016 2534 2758 2815 
Q 2500 3097 2075 3097 
Q 1594 3097 1305 2825 
Q 1016 2553 972 2059 
L 3022 2063 
z
" id="DejaVuSans-65" transform="scale(0.015625)"/>
       </defs>
       <use xlink:href="#DejaVuSans-47"/>
       <use x="77.490234" xlink:href="#DejaVuSans-6f"/>
       <use x="138.671875" xlink:href="#DejaVuSans-6f"/>
       <use x="199.853516" xlink:href="#DejaVuSans-67"/>
       <use x="263.330078" xlink:href="#DejaVuSans-6c"/>
       <use x="291.113281" xlink:href="#DejaVuSans-65"/>
      </g>
     </g>
    </g>
    <g id="xtick_2">
     <g id="line2d_2">
      <g>
       <use style="stroke:#000000;stroke-width:0.8;" x="91.292257" xlink:href="#m7bcb1049ed" y="243.61"/>
      </g>
     </g>
     <g id="text_2">
      <!-- Facebook -->
      <g transform="translate(94.051632 297.605312)rotate(-90)scale(0.1 -0.1)">
       <defs>
        <path d="M 628 4666 
L 3309 4666 
L 3309 4134 
L 1259 4134 
L 1259 2759 
L 3109 2759 
L 3109 2228 
L 1259 2228 
L 1259 0 
L 628 0 
L 628 4666 
z
" id="DejaVuSans-46" transform="scale(0.015625)"/>
        <path d="M 2194 1759 
Q 1497 1759 1228 1600 
Q 959 1441 959 1056 
Q 959 750 1161 570 
Q 1363 391 1709 391 
Q 2188 391 2477 730 
Q 2766 1069 2766 1631 
L 2766 1759 
L 2194 1759 
z
M 3341 1997 
L 3341 0 
L 2766 0 
L 2766 531 
Q 2569 213 2275 61 
Q 1981 -91 1556 -91 
Q 1019 -91 701 211 
Q 384 513 384 1019 
Q 384 1609 779 1909 
Q 1175 2209 1959 2209 
L 2766 2209 
L 2766 2266 
Q 2766 2663 2505 2880 
Q 2244 3097 1772 3097 
Q 1472 3097 1187 3025 
Q 903 2953 641 2809 
L 641 3341 
Q 956 3463 1253 3523 
Q 1550 3584 1831 3584 
Q 2591 3584 2966 3190 
Q 3341 2797 3341 1997 
z
" id="DejaVuSans-61" transform="scale(0.015625)"/>
        <path d="M 3122 3366 
L 3122 2828 
Q 2878 2963 2633 3030 
Q 2388 3097 2138 3097 
Q 1578 3097 1268 2742 
Q 959 2388 959 1747 
Q 959 1106 1268 751 
Q 1578 397 2138 397 
Q 2388 397 2633 464 
Q 2878 531 3122 666 
L 3122 134 
Q 2881 22 2623 -34 
Q 2366 -91 2075 -91 
Q 1284 -91 818 406 
Q 353 903 353 1747 
Q 353 2603 823 3093 
Q 1294 3584 2113 3584 
Q 2378 3584 2631 3529 
Q 2884 3475 3122 3366 
z
" id="DejaVuSans-63" transform="scale(0.015625)"/>
        <path d="M 3116 1747 
Q 3116 2381 2855 2742 
Q 2594 3103 2138 3103 
Q 1681 3103 1420 2742 
Q 1159 2381 1159 1747 
Q 1159 1113 1420 752 
Q 1681 391 2138 391 
Q 2594 391 2855 752 
Q 3116 1113 3116 1747 
z
M 1159 2969 
Q 1341 3281 1617 3432 
Q 1894 3584 2278 3584 
Q 2916 3584 3314 3078 
Q 3713 2572 3713 1747 
Q 3713 922 3314 415 
Q 2916 -91 2278 -91 
Q 1894 -91 1617 61 
Q 1341 213 1159 525 
L 1159 0 
L 581 0 
L 581 4863 
L 1159 4863 
L 1159 2969 
z
" id="DejaVuSans-62" transform="scale(0.015625)"/>
        <path d="M 581 4863 
L 1159 4863 
L 1159 1991 
L 2875 3500 
L 3609 3500 
L 1753 1863 
L 3688 0 
L 2938 0 
L 1159 1709 
L 1159 0 
L 581 0 
L 581 4863 
z
" id="DejaVuSans-6b" transform="scale(0.015625)"/>
       </defs>
       <use xlink:href="#DejaVuSans-46"/>
       <use x="48.394531" xlink:href="#DejaVuSans-61"/>
       <use x="109.673828" xlink:href="#DejaVuSans-63"/>
       <use x="164.654297" xlink:href="#DejaVuSans-65"/>
       <use x="226.177734" xlink:href="#DejaVuSans-62"/>
       <use x="289.654297" xlink:href="#DejaVuSans-6f"/>
       <use x="350.835938" xlink:href="#DejaVuSans-6f"/>
       <use x="412.017578" xlink:href="#DejaVuSans-6b"/>
      </g>
     </g>
    </g>
    <g id="xtick_3">
     <g id="line2d_3">
      <g>
       <use style="stroke:#000000;stroke-width:0.8;" x="107.206531" xlink:href="#m7bcb1049ed" y="243.61"/>
      </g>
     </g>
     <g id="text_3">
      <!-- AppsFlyer -->
      <g transform="translate(109.965906 300.069375)rotate(-90)scale(0.1 -0.1)">
       <defs>
        <path d="M 2188 4044 
L 1331 1722 
L 3047 1722 
L 2188 4044 
z
M 1831 4666 
L 2547 4666 
L 4325 0 
L 3669 0 
L 3244 1197 
L 1141 1197 
L 716 0 
L 50 0 
L 1831 4666 
z
" id="DejaVuSans-41" transform="scale(0.015625)"/>
        <path d="M 1159 525 
L 1159 -1331 
L 581 -1331 
L 581 3500 
L 1159 3500 
L 1159 2969 
Q 1341 3281 1617 3432 
Q 1894 3584 2278 3584 
Q 2916 3584 3314 3078 
Q 3713 2572 3713 1747 
Q 3713 922 3314 415 
Q 2916 -91 2278 -91 
Q 1894 -91 1617 61 
Q 1341 213 1159 525 
z
M 3116 1747 
Q 3116 2381 2855 2742 
Q 2594 3103 2138 3103 
Q 1681 3103 1420 2742 
Q 1159 2381 1159 1747 
Q 1159 1113 1420 752 
Q 1681 391 2138 391 
Q 2594 391 2855 752 
Q 3116 1113 3116 1747 
z
" id="DejaVuSans-70" transform="scale(0.015625)"/>
        <path d="M 2834 3397 
L 2834 2853 
Q 2591 2978 2328 3040 
Q 2066 3103 1784 3103 
Q 1356 3103 1142 2972 
Q 928 2841 928 2578 
Q 928 2378 1081 2264 
Q 1234 2150 1697 2047 
L 1894 2003 
Q 2506 1872 2764 1633 
Q 3022 1394 3022 966 
Q 3022 478 2636 193 
Q 2250 -91 1575 -91 
Q 1294 -91 989 -36 
Q 684 19 347 128 
L 347 722 
Q 666 556 975 473 
Q 1284 391 1588 391 
Q 1994 391 2212 530 
Q 2431 669 2431 922 
Q 2431 1156 2273 1281 
Q 2116 1406 1581 1522 
L 1381 1569 
Q 847 1681 609 1914 
Q 372 2147 372 2553 
Q 372 3047 722 3315 
Q 1072 3584 1716 3584 
Q 2034 3584 2315 3537 
Q 2597 3491 2834 3397 
z
" id="DejaVuSans-73" transform="scale(0.015625)"/>
        <path d="M 2059 -325 
Q 1816 -950 1584 -1140 
Q 1353 -1331 966 -1331 
L 506 -1331 
L 506 -850 
L 844 -850 
Q 1081 -850 1212 -737 
Q 1344 -625 1503 -206 
L 1606 56 
L 191 3500 
L 800 3500 
L 1894 763 
L 2988 3500 
L 3597 3500 
L 2059 -325 
z
" id="DejaVuSans-79" transform="scale(0.015625)"/>
        <path d="M 2631 2963 
Q 2534 3019 2420 3045 
Q 2306 3072 2169 3072 
Q 1681 3072 1420 2755 
Q 1159 2438 1159 1844 
L 1159 0 
L 581 0 
L 581 3500 
L 1159 3500 
L 1159 2956 
Q 1341 3275 1631 3429 
Q 1922 3584 2338 3584 
Q 2397 3584 2469 3576 
Q 2541 3569 2628 3553 
L 2631 2963 
z
" id="DejaVuSans-72" transform="scale(0.015625)"/>
       </defs>
       <use xlink:href="#DejaVuSans-41"/>
       <use x="68.408203" xlink:href="#DejaVuSans-70"/>
       <use x="131.884766" xlink:href="#DejaVuSans-70"/>
       <use x="195.361328" xlink:href="#DejaVuSans-73"/>
       <use x="247.460938" xlink:href="#DejaVuSans-46"/>
       <use x="304.980469" xlink:href="#DejaVuSans-6c"/>
       <use x="332.763672" xlink:href="#DejaVuSans-79"/>
       <use x="391.943359" xlink:href="#DejaVuSans-65"/>
       <use x="453.466797" xlink:href="#DejaVuSans-72"/>
      </g>
     </g>
    </g>
    <g id="xtick_4">
     <g id="line2d_4">
      <g>
       <use style="stroke:#000000;stroke-width:0.8;" x="123.120805" xlink:href="#m7bcb1049ed" y="243.61"/>
      </g>
     </g>
     <g id="text_4">
      <!-- Adjust -->
      <g transform="translate(125.88018 281.869375)rotate(-90)scale(0.1 -0.1)">
       <defs>
        <path d="M 2906 2969 
L 2906 4863 
L 3481 4863 
L 3481 0 
L 2906 0 
L 2906 525 
Q 2725 213 2448 61 
Q 2172 -91 1784 -91 
Q 1150 -91 751 415 
Q 353 922 353 1747 
Q 353 2572 751 3078 
Q 1150 3584 1784 3584 
Q 2172 3584 2448 3432 
Q 2725 3281 2906 2969 
z
M 947 1747 
Q 947 1113 1208 752 
Q 1469 391 1925 391 
Q 2381 391 2643 752 
Q 2906 1113 2906 1747 
Q 2906 2381 2643 2742 
Q 2381 3103 1925 3103 
Q 1469 3103 1208 2742 
Q 947 2381 947 1747 
z
" id="DejaVuSans-64" transform="scale(0.015625)"/>
        <path d="M 603 3500 
L 1178 3500 
L 1178 -63 
Q 1178 -731 923 -1031 
Q 669 -1331 103 -1331 
L -116 -1331 
L -116 -844 
L 38 -844 
Q 366 -844 484 -692 
Q 603 -541 603 -63 
L 603 3500 
z
M 603 4863 
L 1178 4863 
L 1178 4134 
L 603 4134 
L 603 4863 
z
" id="DejaVuSans-6a" transform="scale(0.015625)"/>
        <path d="M 544 1381 
L 544 3500 
L 1119 3500 
L 1119 1403 
Q 1119 906 1312 657 
Q 1506 409 1894 409 
Q 2359 409 2629 706 
Q 2900 1003 2900 1516 
L 2900 3500 
L 3475 3500 
L 3475 0 
L 2900 0 
L 2900 538 
Q 2691 219 2414 64 
Q 2138 -91 1772 -91 
Q 1169 -91 856 284 
Q 544 659 544 1381 
z
M 1991 3584 
L 1991 3584 
z
" id="DejaVuSans-75" transform="scale(0.015625)"/>
        <path d="M 1172 4494 
L 1172 3500 
L 2356 3500 
L 2356 3053 
L 1172 3053 
L 1172 1153 
Q 1172 725 1289 603 
Q 1406 481 1766 481 
L 2356 481 
L 2356 0 
L 1766 0 
Q 1100 0 847 248 
Q 594 497 594 1153 
L 594 3053 
L 172 3053 
L 172 3500 
L 594 3500 
L 594 4494 
L 1172 4494 
z
" id="DejaVuSans-74" transform="scale(0.015625)"/>
       </defs>
       <use xlink:href="#DejaVuSans-41"/>
       <use x="66.658203" xlink:href="#DejaVuSans-64"/>
       <use x="130.134766" xlink:href="#DejaVuSans-6a"/>
       <use x="157.917969" xlink:href="#DejaVuSans-75"/>
       <use x="221.296875" xlink:href="#DejaVuSans-73"/>
       <use x="273.396484" xlink:href="#DejaVuSans-74"/>
      </g>
     </g>
    </g>
    <g id="xtick_5">
     <g id="line2d_5">
      <g>
       <use style="stroke:#000000;stroke-width:0.8;" x="139.03508" xlink:href="#m7bcb1049ed" y="243.61"/>
      </g>
     </g>
     <g id="text_5">
      <!-- Unity3d -->
      <g transform="translate(141.794455 289.594375)rotate(-90)scale(0.1 -0.1)">
       <defs>
        <path d="M 556 4666 
L 1191 4666 
L 1191 1831 
Q 1191 1081 1462 751 
Q 1734 422 2344 422 
Q 2950 422 3222 751 
Q 3494 1081 3494 1831 
L 3494 4666 
L 4128 4666 
L 4128 1753 
Q 4128 841 3676 375 
Q 3225 -91 2344 -91 
Q 1459 -91 1007 375 
Q 556 841 556 1753 
L 556 4666 
z
" id="DejaVuSans-55" transform="scale(0.015625)"/>
        <path d="M 3513 2113 
L 3513 0 
L 2938 0 
L 2938 2094 
Q 2938 2591 2744 2837 
Q 2550 3084 2163 3084 
Q 1697 3084 1428 2787 
Q 1159 2491 1159 1978 
L 1159 0 
L 581 0 
L 581 3500 
L 1159 3500 
L 1159 2956 
Q 1366 3272 1645 3428 
Q 1925 3584 2291 3584 
Q 2894 3584 3203 3211 
Q 3513 2838 3513 2113 
z
" id="DejaVuSans-6e" transform="scale(0.015625)"/>
        <path d="M 603 3500 
L 1178 3500 
L 1178 0 
L 603 0 
L 603 3500 
z
M 603 4863 
L 1178 4863 
L 1178 4134 
L 603 4134 
L 603 4863 
z
" id="DejaVuSans-69" transform="scale(0.015625)"/>
        <path d="M 2597 2516 
Q 3050 2419 3304 2112 
Q 3559 1806 3559 1356 
Q 3559 666 3084 287 
Q 2609 -91 1734 -91 
Q 1441 -91 1130 -33 
Q 819 25 488 141 
L 488 750 
Q 750 597 1062 519 
Q 1375 441 1716 441 
Q 2309 441 2620 675 
Q 2931 909 2931 1356 
Q 2931 1769 2642 2001 
Q 2353 2234 1838 2234 
L 1294 2234 
L 1294 2753 
L 1863 2753 
Q 2328 2753 2575 2939 
Q 2822 3125 2822 3475 
Q 2822 3834 2567 4026 
Q 2313 4219 1838 4219 
Q 1578 4219 1281 4162 
Q 984 4106 628 3988 
L 628 4550 
Q 988 4650 1302 4700 
Q 1616 4750 1894 4750 
Q 2613 4750 3031 4423 
Q 3450 4097 3450 3541 
Q 3450 3153 3228 2886 
Q 3006 2619 2597 2516 
z
" id="DejaVuSans-33" transform="scale(0.015625)"/>
       </defs>
       <use xlink:href="#DejaVuSans-55"/>
       <use x="73.193359" xlink:href="#DejaVuSans-6e"/>
       <use x="136.572266" xlink:href="#DejaVuSans-69"/>
       <use x="164.355469" xlink:href="#DejaVuSans-74"/>
       <use x="203.564453" xlink:href="#DejaVuSans-79"/>
       <use x="262.744141" xlink:href="#DejaVuSans-33"/>
       <use x="326.367188" xlink:href="#DejaVuSans-64"/>
      </g>
     </g>
    </g>
    <g id="xtick_6">
     <g id="line2d_6">
      <g>
       <use style="stroke:#000000;stroke-width:0.8;" x="154.949354" xlink:href="#m7bcb1049ed" y="243.61"/>
      </g>
     </g>
     <g id="text_6">
      <!-- AppLovin -->
      <g transform="translate(157.708729 296.6975)rotate(-90)scale(0.1 -0.1)">
       <defs>
        <path d="M 628 4666 
L 1259 4666 
L 1259 531 
L 3531 531 
L 3531 0 
L 628 0 
L 628 4666 
z
" id="DejaVuSans-4c" transform="scale(0.015625)"/>
        <path d="M 191 3500 
L 800 3500 
L 1894 563 
L 2988 3500 
L 3597 3500 
L 2284 0 
L 1503 0 
L 191 3500 
z
" id="DejaVuSans-76" transform="scale(0.015625)"/>
       </defs>
       <use xlink:href="#DejaVuSans-41"/>
       <use x="68.408203" xlink:href="#DejaVuSans-70"/>
       <use x="131.884766" xlink:href="#DejaVuSans-70"/>
       <use x="195.361328" xlink:href="#DejaVuSans-4c"/>
       <use x="249.324219" xlink:href="#DejaVuSans-6f"/>
       <use x="310.505859" xlink:href="#DejaVuSans-76"/>
       <use x="369.685547" xlink:href="#DejaVuSans-69"/>
       <use x="397.46875" xlink:href="#DejaVuSans-6e"/>
      </g>
     </g>
    </g>
    <g id="xtick_7">
     <g id="line2d_7">
      <g>
       <use style="stroke:#000000;stroke-width:0.8;" x="170.863628" xlink:href="#m7bcb1049ed" y="243.61"/>
      </g>
     </g>
     <g id="text_7">
      <!-- Supersonic -->
      <g transform="translate(173.623003 305.850625)rotate(-90)scale(0.1 -0.1)">
       <defs>
        <path d="M 3425 4513 
L 3425 3897 
Q 3066 4069 2747 4153 
Q 2428 4238 2131 4238 
Q 1616 4238 1336 4038 
Q 1056 3838 1056 3469 
Q 1056 3159 1242 3001 
Q 1428 2844 1947 2747 
L 2328 2669 
Q 3034 2534 3370 2195 
Q 3706 1856 3706 1288 
Q 3706 609 3251 259 
Q 2797 -91 1919 -91 
Q 1588 -91 1214 -16 
Q 841 59 441 206 
L 441 856 
Q 825 641 1194 531 
Q 1563 422 1919 422 
Q 2459 422 2753 634 
Q 3047 847 3047 1241 
Q 3047 1584 2836 1778 
Q 2625 1972 2144 2069 
L 1759 2144 
Q 1053 2284 737 2584 
Q 422 2884 422 3419 
Q 422 4038 858 4394 
Q 1294 4750 2059 4750 
Q 2388 4750 2728 4690 
Q 3069 4631 3425 4513 
z
" id="DejaVuSans-53" transform="scale(0.015625)"/>
       </defs>
       <use xlink:href="#DejaVuSans-53"/>
       <use x="63.476562" xlink:href="#DejaVuSans-75"/>
       <use x="126.855469" xlink:href="#DejaVuSans-70"/>
       <use x="190.332031" xlink:href="#DejaVuSans-65"/>
       <use x="251.855469" xlink:href="#DejaVuSans-72"/>
       <use x="292.96875" xlink:href="#DejaVuSans-73"/>
       <use x="345.068359" xlink:href="#DejaVuSans-6f"/>
       <use x="406.25" xlink:href="#DejaVuSans-6e"/>
       <use x="469.628906" xlink:href="#DejaVuSans-69"/>
       <use x="497.412109" xlink:href="#DejaVuSans-63"/>
      </g>
     </g>
    </g>
    <g id="xtick_8">
     <g id="line2d_8">
      <g>
       <use style="stroke:#000000;stroke-width:0.8;" x="186.777903" xlink:href="#m7bcb1049ed" y="243.61"/>
      </g>
     </g>
     <g id="text_8">
      <!-- Vungle -->
      <g transform="translate(189.537278 284.730312)rotate(-90)scale(0.1 -0.1)">
       <defs>
        <path d="M 1831 0 
L 50 4666 
L 709 4666 
L 2188 738 
L 3669 4666 
L 4325 4666 
L 2547 0 
L 1831 0 
z
" id="DejaVuSans-56" transform="scale(0.015625)"/>
       </defs>
       <use xlink:href="#DejaVuSans-56"/>
       <use x="61.658203" xlink:href="#DejaVuSans-75"/>
       <use x="125.037109" xlink:href="#DejaVuSans-6e"/>
       <use x="188.416016" xlink:href="#DejaVuSans-67"/>
       <use x="251.892578" xlink:href="#DejaVuSans-6c"/>
       <use x="279.675781" xlink:href="#DejaVuSans-65"/>
      </g>
     </g>
    </g>
    <g id="xtick_9">
     <g id="line2d_9">
      <g>
       <use style="stroke:#000000;stroke-width:0.8;" x="202.692177" xlink:href="#m7bcb1049ed" y="243.61"/>
      </g>
     </g>
     <g id="text_9">
      <!-- Branch -->
      <g transform="translate(205.451552 285.883437)rotate(-90)scale(0.1 -0.1)">
       <defs>
        <path d="M 1259 2228 
L 1259 519 
L 2272 519 
Q 2781 519 3026 730 
Q 3272 941 3272 1375 
Q 3272 1813 3026 2020 
Q 2781 2228 2272 2228 
L 1259 2228 
z
M 1259 4147 
L 1259 2741 
L 2194 2741 
Q 2656 2741 2882 2914 
Q 3109 3088 3109 3444 
Q 3109 3797 2882 3972 
Q 2656 4147 2194 4147 
L 1259 4147 
z
M 628 4666 
L 2241 4666 
Q 2963 4666 3353 4366 
Q 3744 4066 3744 3513 
Q 3744 3084 3544 2831 
Q 3344 2578 2956 2516 
Q 3422 2416 3680 2098 
Q 3938 1781 3938 1306 
Q 3938 681 3513 340 
Q 3088 0 2303 0 
L 628 0 
L 628 4666 
z
" id="DejaVuSans-42" transform="scale(0.015625)"/>
        <path d="M 3513 2113 
L 3513 0 
L 2938 0 
L 2938 2094 
Q 2938 2591 2744 2837 
Q 2550 3084 2163 3084 
Q 1697 3084 1428 2787 
Q 1159 2491 1159 1978 
L 1159 0 
L 581 0 
L 581 4863 
L 1159 4863 
L 1159 2956 
Q 1366 3272 1645 3428 
Q 1925 3584 2291 3584 
Q 2894 3584 3203 3211 
Q 3513 2838 3513 2113 
z
" id="DejaVuSans-68" transform="scale(0.015625)"/>
       </defs>
       <use xlink:href="#DejaVuSans-42"/>
       <use x="68.603516" xlink:href="#DejaVuSans-72"/>
       <use x="109.716797" xlink:href="#DejaVuSans-61"/>
       <use x="170.996094" xlink:href="#DejaVuSans-6e"/>
       <use x="234.375" xlink:href="#DejaVuSans-63"/>
       <use x="289.355469" xlink:href="#DejaVuSans-68"/>
      </g>
     </g>
    </g>
    <g id="xtick_10">
     <g id="line2d_10">
      <g>
       <use style="stroke:#000000;stroke-width:0.8;" x="218.606451" xlink:href="#m7bcb1049ed" y="243.61"/>
      </g>
     </g>
     <g id="text_10">
      <!-- Amplitude -->
      <g transform="translate(221.365826 301.855312)rotate(-90)scale(0.1 -0.1)">
       <defs>
        <path d="M 3328 2828 
Q 3544 3216 3844 3400 
Q 4144 3584 4550 3584 
Q 5097 3584 5394 3201 
Q 5691 2819 5691 2113 
L 5691 0 
L 5113 0 
L 5113 2094 
Q 5113 2597 4934 2840 
Q 4756 3084 4391 3084 
Q 3944 3084 3684 2787 
Q 3425 2491 3425 1978 
L 3425 0 
L 2847 0 
L 2847 2094 
Q 2847 2600 2669 2842 
Q 2491 3084 2119 3084 
Q 1678 3084 1418 2786 
Q 1159 2488 1159 1978 
L 1159 0 
L 581 0 
L 581 3500 
L 1159 3500 
L 1159 2956 
Q 1356 3278 1631 3431 
Q 1906 3584 2284 3584 
Q 2666 3584 2933 3390 
Q 3200 3197 3328 2828 
z
" id="DejaVuSans-6d" transform="scale(0.015625)"/>
       </defs>
       <use xlink:href="#DejaVuSans-41"/>
       <use x="68.408203" xlink:href="#DejaVuSans-6d"/>
       <use x="165.820312" xlink:href="#DejaVuSans-70"/>
       <use x="229.296875" xlink:href="#DejaVuSans-6c"/>
       <use x="257.080078" xlink:href="#DejaVuSans-69"/>
       <use x="284.863281" xlink:href="#DejaVuSans-74"/>
       <use x="324.072266" xlink:href="#DejaVuSans-75"/>
       <use x="387.451172" xlink:href="#DejaVuSans-64"/>
       <use x="450.927734" xlink:href="#DejaVuSans-65"/>
      </g>
     </g>
    </g>
    <g id="xtick_11">
     <g id="line2d_11">
      <g>
       <use style="stroke:#000000;stroke-width:0.8;" x="234.520726" xlink:href="#m7bcb1049ed" y="243.61"/>
      </g>
     </g>
     <g id="text_11">
      <!-- Twitter MoPub -->
      <g transform="translate(237.280101 320.594375)rotate(-90)scale(0.1 -0.1)">
       <defs>
        <path d="M -19 4666 
L 3928 4666 
L 3928 4134 
L 2272 4134 
L 2272 0 
L 1638 0 
L 1638 4134 
L -19 4134 
L -19 4666 
z
" id="DejaVuSans-54" transform="scale(0.015625)"/>
        <path d="M 269 3500 
L 844 3500 
L 1563 769 
L 2278 3500 
L 2956 3500 
L 3675 769 
L 4391 3500 
L 4966 3500 
L 4050 0 
L 3372 0 
L 2619 2869 
L 1863 0 
L 1184 0 
L 269 3500 
z
" id="DejaVuSans-77" transform="scale(0.015625)"/>
        <path id="DejaVuSans-20" transform="scale(0.015625)"/>
        <path d="M 628 4666 
L 1569 4666 
L 2759 1491 
L 3956 4666 
L 4897 4666 
L 4897 0 
L 4281 0 
L 4281 4097 
L 3078 897 
L 2444 897 
L 1241 4097 
L 1241 0 
L 628 0 
L 628 4666 
z
" id="DejaVuSans-4d" transform="scale(0.015625)"/>
        <path d="M 1259 4147 
L 1259 2394 
L 2053 2394 
Q 2494 2394 2734 2622 
Q 2975 2850 2975 3272 
Q 2975 3691 2734 3919 
Q 2494 4147 2053 4147 
L 1259 4147 
z
M 628 4666 
L 2053 4666 
Q 2838 4666 3239 4311 
Q 3641 3956 3641 3272 
Q 3641 2581 3239 2228 
Q 2838 1875 2053 1875 
L 1259 1875 
L 1259 0 
L 628 0 
L 628 4666 
z
" id="DejaVuSans-50" transform="scale(0.015625)"/>
       </defs>
       <use xlink:href="#DejaVuSans-54"/>
       <use x="44.583984" xlink:href="#DejaVuSans-77"/>
       <use x="126.371094" xlink:href="#DejaVuSans-69"/>
       <use x="154.154297" xlink:href="#DejaVuSans-74"/>
       <use x="193.363281" xlink:href="#DejaVuSans-74"/>
       <use x="232.572266" xlink:href="#DejaVuSans-65"/>
       <use x="294.095703" xlink:href="#DejaVuSans-72"/>
       <use x="335.208984" xlink:href="#DejaVuSans-20"/>
       <use x="366.996094" xlink:href="#DejaVuSans-4d"/>
       <use x="453.275391" xlink:href="#DejaVuSans-6f"/>
       <use x="514.457031" xlink:href="#DejaVuSans-50"/>
       <use x="573.009766" xlink:href="#DejaVuSans-75"/>
       <use x="636.388672" xlink:href="#DejaVuSans-62"/>
      </g>
     </g>
    </g>
    <g id="xtick_12">
     <g id="line2d_12">
      <g>
       <use style="stroke:#000000;stroke-width:0.8;" x="250.435" xlink:href="#m7bcb1049ed" y="243.61"/>
      </g>
     </g>
     <g id="text_12">
      <!-- Inmobi -->
      <g transform="translate(253.194375 284.883437)rotate(-90)scale(0.1 -0.1)">
       <defs>
        <path d="M 628 4666 
L 1259 4666 
L 1259 0 
L 628 0 
L 628 4666 
z
" id="DejaVuSans-49" transform="scale(0.015625)"/>
       </defs>
       <use xlink:href="#DejaVuSans-49"/>
       <use x="29.492188" xlink:href="#DejaVuSans-6e"/>
       <use x="92.871094" xlink:href="#DejaVuSans-6d"/>
       <use x="190.283203" xlink:href="#DejaVuSans-6f"/>
       <use x="251.464844" xlink:href="#DejaVuSans-62"/>
       <use x="314.941406" xlink:href="#DejaVuSans-69"/>
      </g>
     </g>
    </g>
    <g id="xtick_13">
     <g id="line2d_13">
      <g>
       <use style="stroke:#000000;stroke-width:0.8;" x="266.349274" xlink:href="#m7bcb1049ed" y="243.61"/>
      </g>
     </g>
     <g id="text_13">
      <!-- Mintegral -->
      <g transform="translate(269.108649 297.792812)rotate(-90)scale(0.1 -0.1)">
       <use xlink:href="#DejaVuSans-4d"/>
       <use x="86.279297" xlink:href="#DejaVuSans-69"/>
       <use x="114.0625" xlink:href="#DejaVuSans-6e"/>
       <use x="177.441406" xlink:href="#DejaVuSans-74"/>
       <use x="216.650391" xlink:href="#DejaVuSans-65"/>
       <use x="278.173828" xlink:href="#DejaVuSans-67"/>
       <use x="341.650391" xlink:href="#DejaVuSans-72"/>
       <use x="382.763672" xlink:href="#DejaVuSans-61"/>
       <use x="444.042969" xlink:href="#DejaVuSans-6c"/>
      </g>
     </g>
    </g>
    <g id="xtick_14">
     <g id="line2d_14">
      <g>
       <use style="stroke:#000000;stroke-width:0.8;" x="282.263549" xlink:href="#m7bcb1049ed" y="243.61"/>
      </g>
     </g>
     <g id="text_14">
      <!-- Demdex -->
      <g transform="translate(285.022924 292.449062)rotate(-90)scale(0.1 -0.1)">
       <defs>
        <path d="M 1259 4147 
L 1259 519 
L 2022 519 
Q 2988 519 3436 956 
Q 3884 1394 3884 2338 
Q 3884 3275 3436 3711 
Q 2988 4147 2022 4147 
L 1259 4147 
z
M 628 4666 
L 1925 4666 
Q 3281 4666 3915 4102 
Q 4550 3538 4550 2338 
Q 4550 1131 3912 565 
Q 3275 0 1925 0 
L 628 0 
L 628 4666 
z
" id="DejaVuSans-44" transform="scale(0.015625)"/>
        <path d="M 3513 3500 
L 2247 1797 
L 3578 0 
L 2900 0 
L 1881 1375 
L 863 0 
L 184 0 
L 1544 1831 
L 300 3500 
L 978 3500 
L 1906 2253 
L 2834 3500 
L 3513 3500 
z
" id="DejaVuSans-78" transform="scale(0.015625)"/>
       </defs>
       <use xlink:href="#DejaVuSans-44"/>
       <use x="77.001953" xlink:href="#DejaVuSans-65"/>
       <use x="138.525391" xlink:href="#DejaVuSans-6d"/>
       <use x="235.9375" xlink:href="#DejaVuSans-64"/>
       <use x="299.414062" xlink:href="#DejaVuSans-65"/>
       <use x="359.1875" xlink:href="#DejaVuSans-78"/>
      </g>
     </g>
    </g>
    <g id="xtick_15">
     <g id="line2d_15">
      <g>
       <use style="stroke:#000000;stroke-width:0.8;" x="298.177823" xlink:href="#m7bcb1049ed" y="243.61"/>
      </g>
     </g>
     <g id="text_15">
      <!-- OneSignal -->
      <g transform="translate(300.937198 301.69125)rotate(-90)scale(0.1 -0.1)">
       <defs>
        <path d="M 2522 4238 
Q 1834 4238 1429 3725 
Q 1025 3213 1025 2328 
Q 1025 1447 1429 934 
Q 1834 422 2522 422 
Q 3209 422 3611 934 
Q 4013 1447 4013 2328 
Q 4013 3213 3611 3725 
Q 3209 4238 2522 4238 
z
M 2522 4750 
Q 3503 4750 4090 4092 
Q 4678 3434 4678 2328 
Q 4678 1225 4090 567 
Q 3503 -91 2522 -91 
Q 1538 -91 948 565 
Q 359 1222 359 2328 
Q 359 3434 948 4092 
Q 1538 4750 2522 4750 
z
" id="DejaVuSans-4f" transform="scale(0.015625)"/>
       </defs>
       <use xlink:href="#DejaVuSans-4f"/>
       <use x="78.710938" xlink:href="#DejaVuSans-6e"/>
       <use x="142.089844" xlink:href="#DejaVuSans-65"/>
       <use x="203.613281" xlink:href="#DejaVuSans-53"/>
       <use x="267.089844" xlink:href="#DejaVuSans-69"/>
       <use x="294.873047" xlink:href="#DejaVuSans-67"/>
       <use x="358.349609" xlink:href="#DejaVuSans-6e"/>
       <use x="421.728516" xlink:href="#DejaVuSans-61"/>
       <use x="483.007812" xlink:href="#DejaVuSans-6c"/>
      </g>
     </g>
    </g>
    <g id="xtick_16">
     <g id="line2d_16">
      <g>
       <use style="stroke:#000000;stroke-width:0.8;" x="314.092097" xlink:href="#m7bcb1049ed" y="243.61"/>
      </g>
     </g>
     <g id="text_16">
      <!-- AdColony -->
      <g transform="translate(316.851472 297.87875)rotate(-90)scale(0.1 -0.1)">
       <defs>
        <path d="M 4122 4306 
L 4122 3641 
Q 3803 3938 3442 4084 
Q 3081 4231 2675 4231 
Q 1875 4231 1450 3742 
Q 1025 3253 1025 2328 
Q 1025 1406 1450 917 
Q 1875 428 2675 428 
Q 3081 428 3442 575 
Q 3803 722 4122 1019 
L 4122 359 
Q 3791 134 3420 21 
Q 3050 -91 2638 -91 
Q 1578 -91 968 557 
Q 359 1206 359 2328 
Q 359 3453 968 4101 
Q 1578 4750 2638 4750 
Q 3056 4750 3426 4639 
Q 3797 4528 4122 4306 
z
" id="DejaVuSans-43" transform="scale(0.015625)"/>
       </defs>
       <use xlink:href="#DejaVuSans-41"/>
       <use x="66.658203" xlink:href="#DejaVuSans-64"/>
       <use x="130.134766" xlink:href="#DejaVuSans-43"/>
       <use x="199.958984" xlink:href="#DejaVuSans-6f"/>
       <use x="261.140625" xlink:href="#DejaVuSans-6c"/>
       <use x="288.923828" xlink:href="#DejaVuSans-6f"/>
       <use x="350.105469" xlink:href="#DejaVuSans-6e"/>
       <use x="413.484375" xlink:href="#DejaVuSans-79"/>
      </g>
     </g>
    </g>
    <g id="xtick_17">
     <g id="line2d_17">
      <g>
       <use style="stroke:#000000;stroke-width:0.8;" x="330.006372" xlink:href="#m7bcb1049ed" y="243.61"/>
      </g>
     </g>
     <g id="text_17">
      <!-- Tapjoy -->
      <g transform="translate(332.765747 282.36)rotate(-90)scale(0.1 -0.1)">
       <use xlink:href="#DejaVuSans-54"/>
       <use x="44.583984" xlink:href="#DejaVuSans-61"/>
       <use x="105.863281" xlink:href="#DejaVuSans-70"/>
       <use x="169.339844" xlink:href="#DejaVuSans-6a"/>
       <use x="197.123047" xlink:href="#DejaVuSans-6f"/>
       <use x="258.304688" xlink:href="#DejaVuSans-79"/>
      </g>
     </g>
    </g>
    <g id="xtick_18">
     <g id="line2d_18">
      <g>
       <use style="stroke:#000000;stroke-width:0.8;" x="345.920646" xlink:href="#m7bcb1049ed" y="243.61"/>
      </g>
     </g>
     <g id="text_18">
      <!-- Omniture -->
      <g transform="translate(348.680021 297.635)rotate(-90)scale(0.1 -0.1)">
       <use xlink:href="#DejaVuSans-4f"/>
       <use x="78.710938" xlink:href="#DejaVuSans-6d"/>
       <use x="176.123047" xlink:href="#DejaVuSans-6e"/>
       <use x="239.501953" xlink:href="#DejaVuSans-69"/>
       <use x="267.285156" xlink:href="#DejaVuSans-74"/>
       <use x="306.494141" xlink:href="#DejaVuSans-75"/>
       <use x="369.873047" xlink:href="#DejaVuSans-72"/>
       <use x="408.736328" xlink:href="#DejaVuSans-65"/>
      </g>
     </g>
    </g>
    <g id="xtick_19">
     <g id="line2d_19">
      <g>
       <use style="stroke:#000000;stroke-width:0.8;" x="361.83492" xlink:href="#m7bcb1049ed" y="243.61"/>
      </g>
     </g>
     <g id="text_19">
      <!-- HelpShift -->
      <g transform="translate(364.594295 296.139687)rotate(-90)scale(0.1 -0.1)">
       <defs>
        <path d="M 628 4666 
L 1259 4666 
L 1259 2753 
L 3553 2753 
L 3553 4666 
L 4184 4666 
L 4184 0 
L 3553 0 
L 3553 2222 
L 1259 2222 
L 1259 0 
L 628 0 
L 628 4666 
z
" id="DejaVuSans-48" transform="scale(0.015625)"/>
        <path d="M 2375 4863 
L 2375 4384 
L 1825 4384 
Q 1516 4384 1395 4259 
Q 1275 4134 1275 3809 
L 1275 3500 
L 2222 3500 
L 2222 3053 
L 1275 3053 
L 1275 0 
L 697 0 
L 697 3053 
L 147 3053 
L 147 3500 
L 697 3500 
L 697 3744 
Q 697 4328 969 4595 
Q 1241 4863 1831 4863 
L 2375 4863 
z
" id="DejaVuSans-66" transform="scale(0.015625)"/>
       </defs>
       <use xlink:href="#DejaVuSans-48"/>
       <use x="75.195312" xlink:href="#DejaVuSans-65"/>
       <use x="136.71875" xlink:href="#DejaVuSans-6c"/>
       <use x="164.501953" xlink:href="#DejaVuSans-70"/>
       <use x="227.978516" xlink:href="#DejaVuSans-53"/>
       <use x="291.455078" xlink:href="#DejaVuSans-68"/>
       <use x="354.833984" xlink:href="#DejaVuSans-69"/>
       <use x="382.617188" xlink:href="#DejaVuSans-66"/>
       <use x="416.072266" xlink:href="#DejaVuSans-74"/>
      </g>
     </g>
    </g>
    <g id="xtick_20">
     <g id="line2d_20">
      <g>
       <use style="stroke:#000000;stroke-width:0.8;" x="377.749195" xlink:href="#m7bcb1049ed" y="243.61"/>
      </g>
     </g>
     <g id="text_20">
      <!-- Urbanairship -->
      <g transform="translate(380.50857 314.544375)rotate(-90)scale(0.1 -0.1)">
       <use xlink:href="#DejaVuSans-55"/>
       <use x="73.193359" xlink:href="#DejaVuSans-72"/>
       <use x="114.306641" xlink:href="#DejaVuSans-62"/>
       <use x="177.783203" xlink:href="#DejaVuSans-61"/>
       <use x="239.0625" xlink:href="#DejaVuSans-6e"/>
       <use x="302.441406" xlink:href="#DejaVuSans-61"/>
       <use x="363.720703" xlink:href="#DejaVuSans-69"/>
       <use x="391.503906" xlink:href="#DejaVuSans-72"/>
       <use x="432.617188" xlink:href="#DejaVuSans-73"/>
       <use x="484.716797" xlink:href="#DejaVuSans-68"/>
       <use x="548.095703" xlink:href="#DejaVuSans-69"/>
       <use x="575.878906" xlink:href="#DejaVuSans-70"/>
      </g>
     </g>
    </g>
    <g id="xtick_21">
     <g id="line2d_21">
      <g>
       <use style="stroke:#000000;stroke-width:0.8;" x="393.663469" xlink:href="#m7bcb1049ed" y="243.61"/>
      </g>
     </g>
     <g id="text_21">
      <!-- Optimizely -->
      <g transform="translate(396.422844 304.145937)rotate(-90)scale(0.1 -0.1)">
       <defs>
        <path d="M 353 3500 
L 3084 3500 
L 3084 2975 
L 922 459 
L 3084 459 
L 3084 0 
L 275 0 
L 275 525 
L 2438 3041 
L 353 3041 
L 353 3500 
z
" id="DejaVuSans-7a" transform="scale(0.015625)"/>
       </defs>
       <use xlink:href="#DejaVuSans-4f"/>
       <use x="78.710938" xlink:href="#DejaVuSans-70"/>
       <use x="142.1875" xlink:href="#DejaVuSans-74"/>
       <use x="181.396484" xlink:href="#DejaVuSans-69"/>
       <use x="209.179688" xlink:href="#DejaVuSans-6d"/>
       <use x="306.591797" xlink:href="#DejaVuSans-69"/>
       <use x="334.375" xlink:href="#DejaVuSans-7a"/>
       <use x="386.865234" xlink:href="#DejaVuSans-65"/>
       <use x="448.388672" xlink:href="#DejaVuSans-6c"/>
       <use x="476.171875" xlink:href="#DejaVuSans-79"/>
      </g>
     </g>
    </g>
    <g id="xtick_22">
     <g id="line2d_22">
      <g>
       <use style="stroke:#000000;stroke-width:0.8;" x="409.577743" xlink:href="#m7bcb1049ed" y="243.61"/>
      </g>
     </g>
     <g id="text_22">
      <!-- LeanPlum -->
      <g transform="translate(412.337118 299.511562)rotate(-90)scale(0.1 -0.1)">
       <use xlink:href="#DejaVuSans-4c"/>
       <use x="53.962891" xlink:href="#DejaVuSans-65"/>
       <use x="115.486328" xlink:href="#DejaVuSans-61"/>
       <use x="176.765625" xlink:href="#DejaVuSans-6e"/>
       <use x="240.144531" xlink:href="#DejaVuSans-50"/>
       <use x="300.447266" xlink:href="#DejaVuSans-6c"/>
       <use x="328.230469" xlink:href="#DejaVuSans-75"/>
       <use x="391.609375" xlink:href="#DejaVuSans-6d"/>
      </g>
     </g>
    </g>
    <g id="xtick_23">
     <g id="line2d_23">
      <g>
       <use style="stroke:#000000;stroke-width:0.8;" x="425.492018" xlink:href="#m7bcb1049ed" y="243.61"/>
      </g>
     </g>
     <g id="text_23">
      <!-- MixPanel -->
      <g transform="translate(428.251393 294.911562)rotate(-90)scale(0.1 -0.1)">
       <use xlink:href="#DejaVuSans-4d"/>
       <use x="86.279297" xlink:href="#DejaVuSans-69"/>
       <use x="114.0625" xlink:href="#DejaVuSans-78"/>
       <use x="173.242188" xlink:href="#DejaVuSans-50"/>
       <use x="229.044922" xlink:href="#DejaVuSans-61"/>
       <use x="290.324219" xlink:href="#DejaVuSans-6e"/>
       <use x="353.703125" xlink:href="#DejaVuSans-65"/>
       <use x="415.226562" xlink:href="#DejaVuSans-6c"/>
      </g>
     </g>
    </g>
    <g id="text_24">
     <!-- third-party companies -->
     <g transform="translate(195.012344 332.192812)scale(0.1 -0.1)">
      <defs>
       <path d="M 313 2009 
L 1997 2009 
L 1997 1497 
L 313 1497 
L 313 2009 
z
" id="DejaVuSans-2d" transform="scale(0.015625)"/>
      </defs>
      <use xlink:href="#DejaVuSans-74"/>
      <use x="39.208984" xlink:href="#DejaVuSans-68"/>
      <use x="102.587891" xlink:href="#DejaVuSans-69"/>
      <use x="130.371094" xlink:href="#DejaVuSans-72"/>
      <use x="169.734375" xlink:href="#DejaVuSans-64"/>
      <use x="233.210938" xlink:href="#DejaVuSans-2d"/>
      <use x="269.294922" xlink:href="#DejaVuSans-70"/>
      <use x="332.771484" xlink:href="#DejaVuSans-61"/>
      <use x="394.050781" xlink:href="#DejaVuSans-72"/>
      <use x="435.164062" xlink:href="#DejaVuSans-74"/>
      <use x="474.373047" xlink:href="#DejaVuSans-79"/>
      <use x="533.552734" xlink:href="#DejaVuSans-20"/>
      <use x="565.339844" xlink:href="#DejaVuSans-63"/>
      <use x="620.320312" xlink:href="#DejaVuSans-6f"/>
      <use x="681.501953" xlink:href="#DejaVuSans-6d"/>
      <use x="778.914062" xlink:href="#DejaVuSans-70"/>
      <use x="842.390625" xlink:href="#DejaVuSans-61"/>
      <use x="903.669922" xlink:href="#DejaVuSans-6e"/>
      <use x="967.048828" xlink:href="#DejaVuSans-69"/>
      <use x="994.832031" xlink:href="#DejaVuSans-65"/>
      <use x="1056.355469" xlink:href="#DejaVuSans-73"/>
     </g>
    </g>
   </g>
   <g id="matplotlib.axis_2">
    <g id="ytick_1">
     <g id="line2d_24">
      <defs>
       <path d="M 0 0 
L -3.5 0 
" id="m2bef85dbc8" style="stroke:#000000;stroke-width:0.8;"/>
      </defs>
      <g>
       <use style="stroke:#000000;stroke-width:0.8;" x="50.87" xlink:href="#m2bef85dbc8" y="243.61"/>
      </g>
     </g>
     <g id="text_25">
      <!-- 0 -->
      <g transform="translate(37.5075 247.409219)scale(0.1 -0.1)">
       <defs>
        <path d="M 2034 4250 
Q 1547 4250 1301 3770 
Q 1056 3291 1056 2328 
Q 1056 1369 1301 889 
Q 1547 409 2034 409 
Q 2525 409 2770 889 
Q 3016 1369 3016 2328 
Q 3016 3291 2770 3770 
Q 2525 4250 2034 4250 
z
M 2034 4750 
Q 2819 4750 3233 4129 
Q 3647 3509 3647 2328 
Q 3647 1150 3233 529 
Q 2819 -91 2034 -91 
Q 1250 -91 836 529 
Q 422 1150 422 2328 
Q 422 3509 836 4129 
Q 1250 4750 2034 4750 
z
" id="DejaVuSans-30" transform="scale(0.015625)"/>
       </defs>
       <use xlink:href="#DejaVuSans-30"/>
      </g>
     </g>
    </g>
    <g id="ytick_2">
     <g id="line2d_25">
      <g>
       <use style="stroke:#000000;stroke-width:0.8;" x="50.87" xlink:href="#m2bef85dbc8" y="212.802608"/>
      </g>
     </g>
     <g id="text_26">
      <!-- 100 -->
      <g transform="translate(24.7825 216.601827)scale(0.1 -0.1)">
       <defs>
        <path d="M 794 531 
L 1825 531 
L 1825 4091 
L 703 3866 
L 703 4441 
L 1819 4666 
L 2450 4666 
L 2450 531 
L 3481 531 
L 3481 0 
L 794 0 
L 794 531 
z
" id="DejaVuSans-31" transform="scale(0.015625)"/>
       </defs>
       <use xlink:href="#DejaVuSans-31"/>
       <use x="63.623047" xlink:href="#DejaVuSans-30"/>
       <use x="127.246094" xlink:href="#DejaVuSans-30"/>
      </g>
     </g>
    </g>
    <g id="ytick_3">
     <g id="line2d_26">
      <g>
       <use style="stroke:#000000;stroke-width:0.8;" x="50.87" xlink:href="#m2bef85dbc8" y="181.995217"/>
      </g>
     </g>
     <g id="text_27">
      <!-- 200 -->
      <g transform="translate(24.7825 185.794436)scale(0.1 -0.1)">
       <defs>
        <path d="M 1228 531 
L 3431 531 
L 3431 0 
L 469 0 
L 469 531 
Q 828 903 1448 1529 
Q 2069 2156 2228 2338 
Q 2531 2678 2651 2914 
Q 2772 3150 2772 3378 
Q 2772 3750 2511 3984 
Q 2250 4219 1831 4219 
Q 1534 4219 1204 4116 
Q 875 4013 500 3803 
L 500 4441 
Q 881 4594 1212 4672 
Q 1544 4750 1819 4750 
Q 2544 4750 2975 4387 
Q 3406 4025 3406 3419 
Q 3406 3131 3298 2873 
Q 3191 2616 2906 2266 
Q 2828 2175 2409 1742 
Q 1991 1309 1228 531 
z
" id="DejaVuSans-32" transform="scale(0.015625)"/>
       </defs>
       <use xlink:href="#DejaVuSans-32"/>
       <use x="63.623047" xlink:href="#DejaVuSans-30"/>
       <use x="127.246094" xlink:href="#DejaVuSans-30"/>
      </g>
     </g>
    </g>
    <g id="ytick_4">
     <g id="line2d_27">
      <g>
       <use style="stroke:#000000;stroke-width:0.8;" x="50.87" xlink:href="#m2bef85dbc8" y="151.187825"/>
      </g>
     </g>
     <g id="text_28">
      <!-- 300 -->
      <g transform="translate(24.7825 154.987044)scale(0.1 -0.1)">
       <use xlink:href="#DejaVuSans-33"/>
       <use x="63.623047" xlink:href="#DejaVuSans-30"/>
       <use x="127.246094" xlink:href="#DejaVuSans-30"/>
      </g>
     </g>
    </g>
    <g id="ytick_5">
     <g id="line2d_28">
      <g>
       <use style="stroke:#000000;stroke-width:0.8;" x="50.87" xlink:href="#m2bef85dbc8" y="120.380434"/>
      </g>
     </g>
     <g id="text_29">
      <!-- 400 -->
      <g transform="translate(24.7825 124.179652)scale(0.1 -0.1)">
       <defs>
        <path d="M 2419 4116 
L 825 1625 
L 2419 1625 
L 2419 4116 
z
M 2253 4666 
L 3047 4666 
L 3047 1625 
L 3713 1625 
L 3713 1100 
L 3047 1100 
L 3047 0 
L 2419 0 
L 2419 1100 
L 313 1100 
L 313 1709 
L 2253 4666 
z
" id="DejaVuSans-34" transform="scale(0.015625)"/>
       </defs>
       <use xlink:href="#DejaVuSans-34"/>
       <use x="63.623047" xlink:href="#DejaVuSans-30"/>
       <use x="127.246094" xlink:href="#DejaVuSans-30"/>
      </g>
     </g>
    </g>
    <g id="ytick_6">
     <g id="line2d_29">
      <g>
       <use style="stroke:#000000;stroke-width:0.8;" x="50.87" xlink:href="#m2bef85dbc8" y="89.573042"/>
      </g>
     </g>
     <g id="text_30">
      <!-- 500 -->
      <g transform="translate(24.7825 93.372261)scale(0.1 -0.1)">
       <defs>
        <path d="M 691 4666 
L 3169 4666 
L 3169 4134 
L 1269 4134 
L 1269 2991 
Q 1406 3038 1543 3061 
Q 1681 3084 1819 3084 
Q 2600 3084 3056 2656 
Q 3513 2228 3513 1497 
Q 3513 744 3044 326 
Q 2575 -91 1722 -91 
Q 1428 -91 1123 -41 
Q 819 9 494 109 
L 494 744 
Q 775 591 1075 516 
Q 1375 441 1709 441 
Q 2250 441 2565 725 
Q 2881 1009 2881 1497 
Q 2881 1984 2565 2268 
Q 2250 2553 1709 2553 
Q 1456 2553 1204 2497 
Q 953 2441 691 2322 
L 691 4666 
z
" id="DejaVuSans-35" transform="scale(0.015625)"/>
       </defs>
       <use xlink:href="#DejaVuSans-35"/>
       <use x="63.623047" xlink:href="#DejaVuSans-30"/>
       <use x="127.246094" xlink:href="#DejaVuSans-30"/>
      </g>
     </g>
    </g>
    <g id="ytick_7">
     <g id="line2d_30">
      <g>
       <use style="stroke:#000000;stroke-width:0.8;" x="50.87" xlink:href="#m2bef85dbc8" y="58.76565"/>
      </g>
     </g>
     <g id="text_31">
      <!-- 600 -->
      <g transform="translate(24.7825 62.564869)scale(0.1 -0.1)">
       <defs>
        <path d="M 2113 2584 
Q 1688 2584 1439 2293 
Q 1191 2003 1191 1497 
Q 1191 994 1439 701 
Q 1688 409 2113 409 
Q 2538 409 2786 701 
Q 3034 994 3034 1497 
Q 3034 2003 2786 2293 
Q 2538 2584 2113 2584 
z
M 3366 4563 
L 3366 3988 
Q 3128 4100 2886 4159 
Q 2644 4219 2406 4219 
Q 1781 4219 1451 3797 
Q 1122 3375 1075 2522 
Q 1259 2794 1537 2939 
Q 1816 3084 2150 3084 
Q 2853 3084 3261 2657 
Q 3669 2231 3669 1497 
Q 3669 778 3244 343 
Q 2819 -91 2113 -91 
Q 1303 -91 875 529 
Q 447 1150 447 2328 
Q 447 3434 972 4092 
Q 1497 4750 2381 4750 
Q 2619 4750 2861 4703 
Q 3103 4656 3366 4563 
z
" id="DejaVuSans-36" transform="scale(0.015625)"/>
       </defs>
       <use xlink:href="#DejaVuSans-36"/>
       <use x="63.623047" xlink:href="#DejaVuSans-30"/>
       <use x="127.246094" xlink:href="#DejaVuSans-30"/>
      </g>
     </g>
    </g>
    <g id="ytick_8">
     <g id="line2d_31">
      <g>
       <use style="stroke:#000000;stroke-width:0.8;" x="50.87" xlink:href="#m2bef85dbc8" y="27.958259"/>
      </g>
     </g>
     <g id="text_32">
      <!-- 700 -->
      <g transform="translate(24.7825 31.757477)scale(0.1 -0.1)">
       <defs>
        <path d="M 525 4666 
L 3525 4666 
L 3525 4397 
L 1831 0 
L 1172 0 
L 2766 4134 
L 525 4134 
L 525 4666 
z
" id="DejaVuSans-37" transform="scale(0.015625)"/>
       </defs>
       <use xlink:href="#DejaVuSans-37"/>
       <use x="63.623047" xlink:href="#DejaVuSans-30"/>
       <use x="127.246094" xlink:href="#DejaVuSans-30"/>
      </g>
     </g>
    </g>
    <g id="text_33">
     <!-- #apps -->
     <g transform="translate(18.702813 151.452031)rotate(-90)scale(0.1 -0.1)">
      <defs>
       <path d="M 3272 2816 
L 2363 2816 
L 2100 1772 
L 3016 1772 
L 3272 2816 
z
M 2803 4594 
L 2478 3297 
L 3391 3297 
L 3719 4594 
L 4219 4594 
L 3897 3297 
L 4872 3297 
L 4872 2816 
L 3775 2816 
L 3519 1772 
L 4513 1772 
L 4513 1294 
L 3397 1294 
L 3072 0 
L 2572 0 
L 2894 1294 
L 1978 1294 
L 1656 0 
L 1153 0 
L 1478 1294 
L 494 1294 
L 494 1772 
L 1594 1772 
L 1856 2816 
L 850 2816 
L 850 3297 
L 1978 3297 
L 2297 4594 
L 2803 4594 
z
" id="DejaVuSans-23" transform="scale(0.015625)"/>
      </defs>
      <use xlink:href="#DejaVuSans-23"/>
      <use x="83.789062" xlink:href="#DejaVuSans-61"/>
      <use x="145.068359" xlink:href="#DejaVuSans-70"/>
      <use x="208.544922" xlink:href="#DejaVuSans-70"/>
      <use x="272.021484" xlink:href="#DejaVuSans-73"/>
     </g>
    </g>
   </g>
   <g id="patch_26">
    <path d="M 50.87 243.61 
L 50.87 26.88 
" style="fill:none;stroke:#000000;stroke-linecap:square;stroke-linejoin:miter;stroke-width:0.8;"/>
   </g>
   <g id="patch_27">
    <path d="M 450 243.61 
L 450 26.88 
" style="fill:none;stroke:#000000;stroke-linecap:square;stroke-linejoin:miter;stroke-width:0.8;"/>
   </g>
   <g id="patch_28">
    <path d="M 50.87 243.61 
L 450 243.61 
" style="fill:none;stroke:#000000;stroke-linecap:square;stroke-linejoin:miter;stroke-width:0.8;"/>
   </g>
   <g id="patch_29">
    <path d="M 50.87 26.88 
L 450 26.88 
" style="fill:none;stroke:#000000;stroke-linecap:square;stroke-linejoin:miter;stroke-width:0.8;"/>
   </g>
   <g id="text_34">
    <!-- #apps contacting third-party servers -->
    <g transform="translate(139.402188 20.88)scale(0.12 -0.12)">
     <use xlink:href="#DejaVuSans-23"/>
     <use x="83.789062" xlink:href="#DejaVuSans-61"/>
     <use x="145.068359" xlink:href="#DejaVuSans-70"/>
     <use x="208.544922" xlink:href="#DejaVuSans-70"/>
     <use x="272.021484" xlink:href="#DejaVuSans-73"/>
     <use x="324.121094" xlink:href="#DejaVuSans-20"/>
     <use x="355.908203" xlink:href="#DejaVuSans-63"/>
     <use x="410.888672" xlink:href="#DejaVuSans-6f"/>
     <use x="472.070312" xlink:href="#DejaVuSans-6e"/>
     <use x="535.449219" xlink:href="#DejaVuSans-74"/>
     <use x="574.658203" xlink:href="#DejaVuSans-61"/>
     <use x="635.9375" xlink:href="#DejaVuSans-63"/>
     <use x="690.917969" xlink:href="#DejaVuSans-74"/>
     <use x="730.126953" xlink:href="#DejaVuSans-69"/>
     <use x="757.910156" xlink:href="#DejaVuSans-6e"/>
     <use x="821.289062" xlink:href="#DejaVuSans-67"/>
     <use x="884.765625" xlink:href="#DejaVuSans-20"/>
     <use x="916.552734" xlink:href="#DejaVuSans-74"/>
     <use x="955.761719" xlink:href="#DejaVuSans-68"/>
     <use x="1019.140625" xlink:href="#DejaVuSans-69"/>
     <use x="1046.923828" xlink:href="#DejaVuSans-72"/>
     <use x="1086.287109" xlink:href="#DejaVuSans-64"/>
     <use x="1149.763672" xlink:href="#DejaVuSans-2d"/>
     <use x="1185.847656" xlink:href="#DejaVuSans-70"/>
     <use x="1249.324219" xlink:href="#DejaVuSans-61"/>
     <use x="1310.603516" xlink:href="#DejaVuSans-72"/>
     <use x="1351.716797" xlink:href="#DejaVuSans-74"/>
     <use x="1390.925781" xlink:href="#DejaVuSans-79"/>
     <use x="1450.105469" xlink:href="#DejaVuSans-20"/>
     <use x="1481.892578" xlink:href="#DejaVuSans-73"/>
     <use x="1533.992188" xlink:href="#DejaVuSans-65"/>
     <use x="1595.515625" xlink:href="#DejaVuSans-72"/>
     <use x="1636.628906" xlink:href="#DejaVuSans-76"/>
     <use x="1695.808594" xlink:href="#DejaVuSans-65"/>
     <use x="1757.332031" xlink:href="#DejaVuSans-72"/>
     <use x="1798.445312" xlink:href="#DejaVuSans-73"/>
    </g>
   </g>
  </g>
 </g>
 <defs>
  <clipPath id="pc481e5797a">
   <rect height="216.73" width="399.13" x="50.87" y="26.88"/>
  </clipPath>
 </defs>
</svg>
